/* XPM */
static char *CARROCINHA1679997271[] = {
/* columns rows colors chars-per-pixel */
"64 64 183 2 ",
"   c #1D1C1C",
".  c #3B2736",
"X  c #382738",
"o  c #3D2B3B",
"O  c #3E303F",
"+  c #431D1A",
"@  c #432637",
"#  c #402B37",
"$  c #46273B",
"%  c #482739",
"&  c #442A3B",
"*  c #482B3B",
"=  c #44313E",
"-  c #4B343F",
";  c #543332",
":  c #70312D",
">  c #732E3C",
",  c #763636",
"<  c #634E3E",
"1  c #3D2C43",
"2  c #3E3044",
"3  c #3F364C",
"4  c #422E40",
"5  c #453442",
"6  c #4A3543",
"7  c #453B46",
"8  c #4A3A45",
"9  c #40344B",
"0  c #453C4A",
"q  c #4D3D4E",
"w  c #4C3648",
"e  c #543D4D",
"r  c #433951",
"t  c #4E3F50",
"y  c #453E59",
"u  c #6A3941",
"i  c #3E466E",
"p  c gray31",
"a  c #4F414D",
"s  c #50414F",
"d  c #4E4253",
"f  c #464250",
"g  c #534150",
"h  c #534B53",
"j  c #5B4B55",
"k  c #5E4D5B",
"l  c #554A5F",
"z  c #5C5454",
"x  c #5C5956",
"c  c #5C525B",
"v  c #5E5D5B",
"b  c #715846",
"n  c #61535B",
"m  c #63635F",
"M  c #5E5160",
"N  c #404973",
"B  c #525071",
"V  c #555678",
"C  c #605666",
"Z  c #675F67",
"A  c #635C6B",
"S  c #6C5E68",
"D  c #685A67",
"F  c #735F6B",
"G  c #625B70",
"H  c #676562",
"J  c #696662",
"K  c #6F6F6F",
"L  c #686964",
"P  c #76626E",
"I  c #696177",
"U  c #756571",
"Y  c #786972",
"T  c #767275",
"R  c #7C7379",
"E  c #7F7F7F",
"W  c #884C34",
"Q  c #8B523B",
"!  c #A0413E",
"~  c #A95337",
"^  c #8D454E",
"/  c #9D434A",
"(  c #8D665D",
")  c #BE7849",
"_  c #87727B",
"`  c #886973",
"'  c #DD9154",
"]  c #C4877E",
"[  c #686786",
"{  c #706880",
"}  c #777389",
"|  c #7F7A89",
" . c #686F99",
".. c #646992",
"X. c #8A7C85",
"o. c #827B89",
"O. c #8C7F89",
"+. c #937882",
"@. c #8D8089",
"#. c #8E8E8E",
"$. c #828382",
"%. c #93828C",
"&. c #8A899A",
"*. c #968691",
"=. c #908D99",
"-. c #9D8D99",
";. c #998996",
":. c #8F9090",
">. c #94929E",
",. c #9C949D",
"<. c gray62",
"1. c #B78885",
"2. c #BF8381",
"3. c #A3939D",
"4. c #BA9692",
"5. c #8C8CA5",
"6. c #9E96A4",
"7. c #9A9AA6",
"8. c #9496AF",
"9. c #969DA8",
"0. c #999DA9",
"q. c #9B9EB9",
"w. c #A595A1",
"e. c #A598A2",
"r. c #A59FAD",
"t. c #A99CA6",
"y. c #9FA0A0",
"u. c #9BA2AB",
"i. c #9CA6B1",
"p. c #9EA9B3",
"a. c #A2A5AC",
"s. c #AFAFAF",
"d. c #A7A8A7",
"f. c #B1A1AC",
"g. c #A4A6B2",
"h. c #A1ABB3",
"j. c #AFADB7",
"k. c #ADB3B7",
"l. c #A7B3BA",
"z. c #ABB5BB",
"x. c #AFB9BE",
"c. c #B4B4B5",
"v. c #BBB2BB",
"b. c #BDBCBD",
"n. c #B1B8BD",
"m. c #C1B6BC",
"M. c #C0B8BC",
"N. c #BFC0BF",
"B. c #A3A7C2",
"V. c #B7BEC1",
"C. c #CCBEC7",
"Z. c #C8BDC5",
"A. c #C6C5C5",
"S. c #CECECE",
"D. c #CEC5CE",
"F. c #D3C5CE",
"G. c #D1CACE",
"H. c #D6CED5",
"J. c #DFDFDE",
"K. c gray83",
"L. c #E7C4CC",
"P. c #E9D8DA",
"I. c #E0D8E1",
"U. c #EAE0E7",
"Y. c #E3E7EB",
"T. c #EEE3EB",
"R. c #E3E9EC",
"E. c #EFEEEF",
"W. c #EAF0ED",
"Q. c #FEF3EE",
"!. c #EBEFF3",
"~. c #E7ECF0",
"^. c #F4ECF2",
"/. c #FAE9F1",
"(. c #EBF0F5",
"). c #F5F3F5",
"_. c #FEF5F4",
"`. c #F6F8F7",
"'. c #FDF9F4",
"]. c #FCF5FB",
"[. c #F6FBFC",
"{. c #FEFEFE",
"}. c #F1F6F8",
/* pixels */
"B.B.B.N B.B.B.B.B.B.B.N B.B.B.B.B.B.B.N B.B.B.B.B.B.B.N B.B.B.B.B.B.B.N B.B.B.B.B.B.B.N B.B.B.B.B.B.B.N B.B.B.B.B.B.B.N B.B.B.B.",
"B.B.B.N B.B.B.B.B.B.B.N B.B.B.B.B.B.B.N B.B.B.B.B.B.B.N B.B.B.B.B.B.B.N B.B.B.B.B.B.B.N B.B.B.B.B.B.B.N B.B.B.B.B.B.B.N B.B.B.B.",
"B.B.B.N B.B.B.B.B.B.B.N B.B.B.B.B.B.B.N B.B.B.B.B.B.B.N B.B.B.B.B.B.B.N B.B.B.B.B.B.B.N B.B.B.B.B.B.B.N B.B.B.B.B.B.B.N B.B.B.B.",
" . . . . . . . . . . . . . . . . . . . . . . . . . . . . . . . . . . . . . . . . . . . . . . . . . . . . . . . . . . . . . . . .",
"B.B.B.B.B.B.B.N B.B.B.B.B.B.B.N B.B.B.B.B.B.B.N B.B.B.B.B.B.B.N B.B.B.B.B.B.B.N B.B.B.B.B.B.B.N B.B.B.B.B.B.B.N B.B.B.B.B.B.B.N ",
"B.B.B.B.B.B.B.N B.B.B.B.B.B.B.N B.B.B.B.B.B.B.N B.B.B.B.B.B.B.N B.B.B.B.B.B.B.N B.B.B.B.B.B.B.N B.B.B.B.B.B.B.N B.B.B.B.B.B.B.N ",
"B.B.B.B.B.B.B.N B.B.B.B.B.B.B.N B.B.B.B.B.B.B.N B.B.B.B.B.B.B.N B.B.B.B.B.B.B.N B.B.B.B.B.B.B.N B.B.B.B.B.B.B.N B.B.B.B.B.B.B.N ",
" . . . . . . . . . . . . . . . . . . . . . . . . . . . . . . . . . . . . . . . . . . . . . . . . . . . . . . . . . . . . . . . .",
"B.B.B.N B.B.B.B.B.B.B.N B.B.B.B.B.B.B.N B.B.B.B.B.B.B.N B.B.B.B.B.B.B.N B.B.B.B.B.B.B.N B.B.B.B.B.B.B.N B.B.B.B.B.B.B.N B.B.B.B.",
"B.B.B.N B.B.B.B.B.B.B.N B.B.B.B.B.B.B.N B.B.B.B.B.B.B.N B.B.B.B.B.B.B.N B.B.B.B.B.B.B.N B.B.B.B.B.B.B.N B.B.B.B.B.B.B.N B.B.B.B.",
"B.B.B.N B.B.B.B.B.B.B.N B.B.B.B.B.B.B.N B.B.B.B.B.B.B.N B.B.B.B.B.B.B.N B.B.B.B.B.B.B.N B.B.B.B.B.B.B.N B.B.B.B.B.B.B.N B.B.B.B.",
" . . . . . . . . . . . . . . . . . . . . . . . . . . . . . . . . . . . . . . . . . . . . . . . . . . . . . . . . . . . . . . . .",
"B.B.B.B.B.B.B.N B.B.B.B.B.B.B.N B.B.B.B.B.B.B.N B.B.T C C C C 9 C C C C C C C 9 C C C C C C C 9 C C C M C C C 9 C C C C C M C r ",
"B.B.B.B.B.B.B.N B.B.B.B.B.B.B.N B.B.B.B.B.B.B.N B.B.l $ _ m.m.m.v.Z.m.m.m.m.m.m.m.m.m.m.m.m.m.m.m.m.b.Z.m.m.m.m.m.m.m.m.Z.v.m.U ",
"B.B.B.B.B.B.B.N B.B.B.B.B.B.B.N B.B.B.B.B.B.B.N B.B.r & 3.{.{.{.{.{.{.{.{.{.{.{.{.{.{.{.{.{.{.{.{.{.{.{.{.{.{.{.{.{.{.{.{.{.].O.",
" . . . . . . . . . .V y 1 1 9 9 9 2 9 r  . . . . . .1 & 3.{.{.{.& & & F G.& & & P G.& & & P G.& & & P G.& & & P G.& & & {.{.{.O.",
"B.B.B.N B.B.B.B.B.B.o & 4 * @ $ & & & $ i.B.B.B.B.B.w $ e.{.{.{.% & & F G.& & & F G.& & & F G.& & @ F G.& & @ F G.& & & {.{.{.O.",
"B.B.B.N B.B.B.B.G X w.t.f.f.f.f.f.f.f.f.q 8.B.B.B.B.0 $ e.{.{.[.& & & F G.* @ & F G.& $ & F G.& & & F G.& & & F G.& & & {.{.{.O.",
"B.B.B.N B.B.B.B.* 8 T.{.{.{.].{.{.{.].].H O B.B.B.B.r & e.{.{.{.& & & F G.& & & F G.& @ @ F G.& & & F G.& & & F G.@ $ & {.{.{.X.",
" . . . . . .B 2 3.3.O.@.O.O.O.%.O.O.%.O.,.t.g r  . .1 $ e.{.{.{.@ & & F G.@ & & F G.& & * F G.@ & & F G.@ & & F G.* & & {.{.].O.",
"B.B.B.B.B.B.o w ]./.8 # & * & $ % # # # F.].P o i.B.r 4 e.{.{.'.& * @ F G.@ $ & F G.& & * F G.& & & F G.@ & $ P G.& & & {.{.{.O.",
"B.B.B.B.I . *.*.-.;.* & % @ * $ % % # o F.{.P $ B.B.t $ e.{.{.[.& & & F G.& & & F G.& & & F G.& & @ F G.& & @ F G.& & & {.{.{.O.",
"B.B.B.B.o q ^./.5 * & & & @ * $ & % % o F.].P $ B.B.d o e.{.{.{.& & & F G.* & & F G.& * @ F G.& & * F G.& & & F G.& @ $ {.{.{.X.",
" . .B 5 ;.*.w.;.& & & & & $ $ $ & % & & F.{.F 1  . .9 & e.{.[.{.@ & & F G.& @ & F G.& @ & F G.& & & F G.@ * & F G.& & & {.{.{.O.",
"B.B.o S ].T.5 o & @ $ & & & & $ * & % # F.{.F $ B.B.g & e.{.{.{.* & & F G.& & @ F G.& & @ F G.& & & F G.* @ & F G.& & & {.{.{.O.",
"B.B.o S {.T.5 & & & % & % & & @ @ * % # F.{.F 4 B.B.d o e.{.{.{.@ & & F G.& & * F G.& & & F G.@ & & F G.& & & F G.& & & {.{.{.@.",
"B.B.o S ].I.5 $ & & & & & & $ % * # # . F.{.P $ B.B.d & e.{.{.{.$ & & F G.& & @ F G.& @ & F G.* % & F G.& & & F G.& & @ {.{.].@.",
"... n R F.m.6 @ # % % & % & & & & % * # F.].P $  . .3 & e.{.{.'.& & & F G.& & & F G.& & & F G.& & & F G.& @ & F G.@ & * '.P.L.` ",
"& Y ].C.# & % * & @ $ @ $ $ * % % % & & F.{.F 4 B.B.d & e.{.{.[.& & & F G.@ & & F G.& & & F G.& & & F G.& & & F D.& & & '.1.^ u ",
"& U ].C.% % % * $ $ $ $ $ $ $ $ % & $ @ F.{.F 4 B.B.d & e.{.{.{.@ & & P G.* & & P G.& & & P G.& & @ F G.& & & F D.& & & Q.2./ > ",
"& Y ].A.* % & # * $ * $ * $ $ @ * % & & F.].F $ B.B.d o e.{.{.{.{.{.{.{.{.{.{.{.{.{.{.{.{.{.{.{.{.{.{.{.{.{.{.{.{.{.{.{._.] ! > ",
"& U ].D.a a j j j j j j j j j k j j j j H.{.P 4  . .9 & e.{.{.{.{.{.{.{.{.{.{.{.{.{.{.{.{.{.{.{.{.{.{.{.{.{.{.{.{.{.{.{._.] ~ , ",
"o P ].Y.g.n.).'.'.{.'.{.'.{.{.{.{.].].[.{.{.P $ B.B.d & ;.E E J.U.#.{.<.:.s.{.K #.{.S.$.<.{.S.E E K.S.K E.y.{.y.y.{.S.S.'.< ' Q ",
"# P {.Y.h.z.[.{.{.{.{.{.{.{.}.}.}.}.{.{.{.].P $ B.B.d & p {.{.{.E #.{.E {.K {.N.s.S.E {.J.:.v {.{.A.b.K :.E {.$.E N.:.b.d.b ) W ",
"& P `.R.p.x.`.{.{.{.{.{.{.].x.h.h.g.R.{.{.{.P 4 B.B.0 o h {.{.{.v :.k.E | #.{.H p E.E {.E.$.E {.{.A.c.E #.K {.$.E b.#.b.E ( + : ",
"# Y {.R.p.z.`.{.{.{.{.{.{.[.b.l.k.k.~.{.{.{.F 4  . .2 & R #.<.,.S.{.E E {.:.E.b.J.E <.d.K J.s.#.:.A.c.T U.  U.R T ).b.s.#.4.; , ",
"& Y [.R.p.z.[.{.{.{.{.{.{.{.[.{.{.{.{.{.{.{.F $ B.B.0 @ e.{.{.{.{.{.{.{.{.{.{.{.{.{.{.{.{.{.{.{.{.{.E.M * = & = - Z.{.{.'._.Q.+.",
"& P '.R.l.z.[.{.{.{.{.{.{.{.{.{.{.{.{.{.{.].F 4 B.B.5 $ e.{.{.{.{.{.{.{.{.{.{.{.{.{.{.{.{.{.{.].{.E.I.M 1 5 = = 5 v.!.`.{.{.].O.",
"= P '.R.h.z.].{.{.{.{.{.{.{.{.{.{.{.{.{.{.{.F & B.B.0 $ e.{.{.{.{.{.{.{.{.{.{.{.{.{.{.{.{.{.{.{.I.k 0 =.g.g.g.g.r.k 7 b.{.{.[.O.",
"# P ].R.l.x.}.`.).).).).).).`.{.[.{.{.{.{.{.U @ .. .X $ 3.^.).).).).).).).).).).).).).).).).).).P.k 0 &.p.i.i.i.u.c 5 v.^.).E.X.",
"& K ].{.[.(.B.l.g e e e e s u.k.(.{.{.{.{.].U $ & @ & $ w s e e e s e e t e e e e e e e e e e e h =.>.h 7 8 6 6 0 | 7.A e e e 6 ",
"& P `.[.[.(.h.7.# # % * # = ,.h.~.[.[.[.{.].U 1 & 5 1 o & & 4 4 4 & 4 4 & 4 4 4 4 4 & 4 4 4 1 o 0 >.6.s # o & o = o.a.C & 4 $ $ ",
"& c j.j.k.u.0 8 z j z z z h 8 7 9.l.l.l.z.l.0.0.9.9.9.9.u.9.9.0.0.0.0.0.0.0.0.0.0.0.0.0.9.0.9.0.=.d 7 p z j j z j 0 0 o.7.9.7.C ",
"& k r.g.g.>.= * z z z n z z * & =.h.p.h.g.p.p.p.p.p.p.p.p.p.h.p.p.p.h.h.p.p.p.h.h.p.h.h.g.p.g.g.6.q O h z z z z j 6 = o.p.i.p.A ",
"& & t t 0 a & $ z x m m z z * $ w f f t t t t t d t q d t t t d t t d t q t d t t t t t q q d t q & & h z H H x z - & w t r t 6 ",
"o & & & & & & & z x m m z z 5 4 & $ 1 4 4 $ $ $ & & $ & $ & & 5 $ $ & & & $ & & & $ 4 & $ $ & & & $ & z x H L x z - * $ $ $ $ $ ",
"B.B.B.B.B.5.o 4 z z x n z z & o { B.B.B.B.B.B.i B.B.B.B.B.B.B.N B.B.B.B.B.B.B.N B.B.B.B.B.B.B.N 5.@ & j z v x z n - & } B.B.B.i ",
" . . . . . .o 4 z z n z z z 5 o  . . . . . . . . . . . . . . . . . . . . . . . . . . . . . . . . .. = j n z z n j - &  . . . . .",
"B.B.B.N B.B.B.B.6 - - - - 6 5.B.B.B.B.N B.B.B.B.B.B.B.N B.B.B.B.B.B.B.N B.B.B.B.B.B.B.N B.B.B.B.B.B.B.& 5 8 - - = } B.i B.B.B.B.",
"B.B.B.N B.B.B.B.& & & & @ @ B.B.B.B.B.N B.B.B.B.B.B.B.N B.B.B.B.B.B.B.N B.B.B.B.B.B.B.N B.B.B.B.B.B.B.. & o o o O B.B.i B.B.B.B.",
"B.B.B.N B.B.B.B.B.B.B.i B.B.B.B.B.B.B.N B.B.B.B.B.B.B.N B.B.B.B.B.B.B.N B.B.B.B.B.B.B.N B.B.B.B.B.B.B.i &.5.8.B.B.B.B.i B.B.B.B.",
" . . . . . . . . . . . . . . . . . . . . . . . . . . . . . . . . . . . . . . . . . . . . . . . . . . . . . . . . . . . . . . . .",
"B.B.B.B.B.B.B.N B.B.B.B.B.B.B.N B.B.B.B.B.B.B.N B.B.B.B.B.B.B.N B.B.B.B.B.B.B.N B.B.B.B.B.B.B.N B.B.B.B.B.B.B.N B.B.B.B.B.B.B.N ",
"B.B.B.B.B.B.B.N B.B.B.B.B.B.B.N B.B.B.B.B.B.B.N B.B.B.B.B.B.B.N B.B.B.B.B.B.B.N B.B.B.B.B.B.B.N B.B.B.B.B.B.B.N B.B.B.B.B.B.B.N ",
"B.B.B.B.B.B.B.N B.B.B.B.B.B.B.N B.B.B.B.B.B.B.N B.B.B.B.B.B.B.N B.B.B.B.B.B.B.N B.B.B.B.B.B.B.N B.B.B.B.B.B.B.i B.B.B.B.B.B.B.N ",
" . . . . . . . . . . . . . . . . . . . . . . . . . . . . . . . . . . . . . . . . . . . . . . . . . . . . . . . . . . . . . . . .",
"B.B.B.N B.B.B.B.B.B.B.N B.B.B.B.B.B.B.N B.B.B.B.B.B.B.N B.B.B.B.B.B.B.N B.B.B.B.B.B.B.N B.B.B.B.B.B.B.N B.B.B.B.B.B.B.N B.B.B.B.",
"B.B.B.N B.B.B.B.B.B.B.N B.B.B.B.B.B.B.N B.B.B.B.B.B.B.N B.B.B.B.B.B.B.N B.B.B.B.B.B.B.N B.B.B.B.B.B.B.N B.B.B.B.B.B.B.N B.B.B.B.",
"B.B.B.N B.B.B.B.B.B.B.N B.B.B.B.B.B.B.N B.B.B.B.B.B.B.N B.B.B.B.B.B.B.N B.B.B.B.B.B.B.N B.B.B.B.B.B.B.N B.B.B.B.B.B.B.N B.B.B.B.",
" . . . . . . . . . . . . . . . . . . . . . . . . . . . . . . . . . . . . . . . . . . . . . . . . . . . . . . . . . . . . . . . .",
"B.B.B.B.B.B.B.N B.B.B.B.B.B.B.N B.B.B.B.B.B.B.N B.B.B.B.B.B.B.N B.B.B.B.B.B.B.N B.B.B.B.B.B.B.N B.B.B.B.B.B.B.N B.B.B.B.B.B.B.N ",
"B.B.B.B.B.B.B.N B.B.B.B.B.B.B.N B.B.B.B.B.B.B.N B.B.B.B.B.B.B.N B.B.B.B.B.B.B.N B.B.B.B.B.B.B.N B.B.B.B.B.B.B.N B.B.B.B.B.B.B.N ",
"B.B.B.B.B.B.B.N B.B.B.B.B.B.B.N B.B.B.B.B.B.B.N B.B.B.B.B.B.B.N B.B.B.B.B.B.B.N B.B.B.B.B.B.B.N B.B.B.B.B.B.B.N B.B.B.B.B.B.B.N ",
" . . . . . . . . . . . . . . . . . . . . . . . . . . . . . . . . . . . . . . . . . . . . . . . . . . . . . . . . . . . . . . . ."
};
