/* XPM */
static char *COLLECTABLE1679997271[] = {
/* columns rows colors chars-per-pixel */
"64 64 29 1 ",
"  c #A3A7C2",
". c #404973",
"X c #686F99",
"o c #982721",
"O c #B35840",
"+ c #A6513F",
"@ c #C92C2E",
"# c #F7424B",
"$ c #D7584B",
"% c #F17E71",
"& c #C55C45",
"* c #F67B5C",
"= c #FC8546",
"- c #FD7D50",
"; c #FDA363",
": c #EB7A68",
"> c #FB966C",
", c #9C4F43",
"< c #93513F",
"1 c #FDB62A",
"2 c #FD3F42",
"3 c #FD9729",
"4 c #FDBC08",
"5 c #F9FE6E",
"6 c #FD7F26",
"7 c #7C1F29",
"8 c #743A2D",
"9 c #FB8E71",
"0 c #F27116",
/* pixels */
"   .       .       .       .       .       .       .       .    ",
"   .       .       .       .       .       .       .       .    ",
"   .       .       .       .       .       .       .       .    ",
"XXXXXXXXXXXXXXXXXXXXXXXXXXXXXXXXXXXXXXXXXXXXXXXXXXXXXXXXXXXXXXXX",
"       .       .       .       .       .       .       .       .",
"       .       .       .       .       .       .       .       .",
"       .       .       .       .       .       .       .       .",
"XXXXXXXXXXXXXXXXXXXXXXXXXXXXXXXXXXXXXXXXXXXXXXXXXXXXXXXXXXXXXXXX",
"   .       .       .       .       .       .       .       .    ",
"   .       .       .       .       .       .       .       .    ",
"   .       .       .       .       .       .       .       .    ",
"XXXXXXXXXXXXXXXXXXXXXXXXXXXXXXXXXXXXXXXXXXXXXXXXXXXXXXXXXXXXXXXX",
"       .       .       .       .       .       .       .       .",
"       .       .       .       .       .       .       .       .",
"       .       .       .       .       .       .       .       .",
"XXXXXXXXXXXXXXXXXXXXXXXXXXXXXXXXXXXXXXXXXXXXXXXXXXXXXXXXXXXXXXXX",
"   .       .       .       .       .       .       .       .    ",
"   .       .       .       .       .       .       .       .    ",
"   .       .       .       .       .       .       .       .    ",
"XXXXXXXXXXXXXXXXXXXXXXXXXXXXXXXXXXXXXXXXXXXXXXXXXXXXXXXXXXXXXXXX",
"       .       .       .       .       .       .       .       .",
"       .       .       .       .       .       .       .       .",
"       .       .  oo   .    ooooooooooo.       .       .       .",
"XXXXXXXXXXXXXXXXXoO+oooooooo@oo###$$$#$ooXXXXXXXXXXXXXXXXXXXXXXX",
"   .       .    o%+#&o&+++@oo##*=-===;$$#o .       .       .    ",
"   .       .    o%@+#:ooooo$#-->#------##$oo       .       .    ",
"   .       .     ooo&,###$ooooooo,*-----####o      .       .    ",
"XXXXXXXXXXXXXXXXXXXXoo+####$$##$#<##--1--$##2oXXXXXXXXXXXXXXXXXX",
"       .       .    oo+####$$##$#<##--1--$##2o .       .       .",
"       .       .      o++##--343-#o&#-55==###o .       .       .",
"       .       .    ooo++$###-631=o&#-#54---#$o.       .       .",
"XXXXXXXXXXXXXXXXXXXo+++ooO####$-=3$7#-#44---#2oXXXXXXXXXXXXXXXXX",
"   .       .      o+ooo++o#####==3$7##-#5---##o    .       .    ",
"   .       .      oo+++OOOO####=-228###-==$$#$#o   .       .    ",
"   .       .      oo+O+++OO$###-$#o<+O#$$$$$$$+o   .       .    ",
"XXXXXXXXXXXXXXXXXXoo+O+++OO$###-$#o<+O#$$$$$$$+oXXXXXXXXXXXXXXXX",
"       .       .  oo+OO%%,%$9>;##ooooo+%O:%%++:o       .       .",
"       .       .  o++OO++OO,,$$$+&====oooooooo+o       .       .",
"       .       .   oo++::,:,<,:<o$####-===--=0oo       .       .",
"XXXXXXXXXXXXXXXXXXXXXoo+++++++++o+++++++++++O-oXXXXXXXXXXXXXXXXX",
"   .       .       .   ooooooooooooooooooooooo     .       .    ",
"   .       .       .       .       .       .       .       .    ",
"   .       .       .       .       .       .       .       .    ",
"XXXXXXXXXXXXXXXXXXXXXXXXXXXXXXXXXXXXXXXXXXXXXXXXXXXXXXXXXXXXXXXX",
"       .       .       .       .       .       .       .       .",
"       .       .       .       .       .       .       .       .",
"       .       .       .       .       .       .       .       .",
"XXXXXXXXXXXXXXXXXXXXXXXXXXXXXXXXXXXXXXXXXXXXXXXXXXXXXXXXXXXXXXXX",
"   .       .       .       .       .       .       .       .    ",
"   .       .       .       .       .       .       .       .    ",
"   .       .       .       .       .       .       .       .    ",
"XXXXXXXXXXXXXXXXXXXXXXXXXXXXXXXXXXXXXXXXXXXXXXXXXXXXXXXXXXXXXXXX",
"       .       .       .       .       .       .       .       .",
"       .       .       .       .       .       .       .       .",
"       .       .       .       .       .       .       .       .",
"XXXXXXXXXXXXXXXXXXXXXXXXXXXXXXXXXXXXXXXXXXXXXXXXXXXXXXXXXXXXXXXX",
"   .       .       .       .       .       .       .       .    ",
"   .       .       .       .       .       .       .       .    ",
"   .       .       .       .       .       .       .       .    ",
"XXXXXXXXXXXXXXXXXXXXXXXXXXXXXXXXXXXXXXXXXXXXXXXXXXXXXXXXXXXXXXXX",
"       .       .       .       .       .       .       .       .",
"       .       .       .       .       .       .       .       .",
"       .       .       .       .       .       .       .       .",
"XXXXXXXXXXXXXXXXXXXXXXXXXXXXXXXXXXXXXXXXXXXXXXXXXXXXXXXXXXXXXXXX"
};
