/* XPM */
static char *VBACK1679997272[] = {
/* columns rows colors chars-per-pixel */
"64 64 132 2 ",
"   c #030303",
".  c #080707",
"X  c #0D0C0C",
"o  c #100E0E",
"O  c #141212",
"+  c #191717",
"@  c #1B1817",
"#  c #1D1A1A",
"$  c #211E1E",
"%  c #26201E",
"&  c #2C231E",
"*  c #31261F",
"=  c #181A25",
"-  c #211F21",
";  c #242121",
":  c #2A2726",
">  c #23222A",
",  c #29262A",
"<  c #2C2B2E",
"1  c #332720",
"2  c #332A27",
"3  c #3B2E26",
"4  c #362D28",
"5  c #3D3028",
"6  c #242530",
"7  c #2D2C32",
"8  c #252738",
"9  c #27293A",
"0  c #312F34",
"q  c #323135",
"w  c #343339",
"e  c #39373C",
"r  c #3A393C",
"t  c #403027",
"y  c #43342B",
"u  c #48352A",
"i  c #49392F",
"p  c #4D3B31",
"a  c #473D3D",
"s  c #553E30",
"d  c #574135",
"f  c #5F4738",
"g  c #624736",
"h  c #654A39",
"j  c #70513D",
"k  c #2F334C",
"l  c #353644",
"z  c #3E3C42",
"x  c #363849",
"c  c #383A4C",
"v  c #313753",
"b  c #323855",
"n  c #403F40",
"m  c #403F4D",
"M  c #3F414B",
"N  c #3F4259",
"B  c #3D456B",
"V  c #3F4872",
"C  c #414041",
"Z  c #494749",
"A  c #4E4D4F",
"S  c #414254",
"D  c #4B4B55",
"F  c #47495F",
"G  c #4F4F5A",
"H  c #525153",
"J  c #53535C",
"K  c #5A595C",
"L  c #664F48",
"P  c #775641",
"I  c #7A5741",
"U  c #7E5B45",
"Y  c #6C5851",
"T  c #6C5759",
"R  c #6E595B",
"E  c #715D55",
"W  c #7F5F51",
"Q  c #725A58",
"!  c #434965",
"~  c #4A4D6C",
"^  c #4E526F",
"/  c #5B5B65",
"(  c #50546F",
")  c #5D5E68",
"_  c #404973",
"`  c #4F5370",
"'  c #525673",
"]  c #555977",
"[  c #555978",
"{  c #665B66",
"}  c #636264",
"|  c #64636E",
" . c #7E696B",
".. c #626370",
"X. c #6C6E7E",
"o. c #845E46",
"O. c #876047",
"+. c #876048",
"@. c #8C634A",
"#. c #916F5E",
"$. c #8B7570",
"%. c #957B73",
"&. c #957E7A",
"*. c #96817D",
"=. c #5D6285",
"-. c #5E658B",
";. c #60668C",
":. c #727384",
">. c #7C7D80",
",. c #76788B",
"<. c #7A7C8E",
"1. c #656C94",
"2. c #6A6E95",
"3. c #686F99",
"4. c #747995",
"5. c #7B7E91",
"6. c #87888B",
"7. c #978382",
"8. c #828394",
"9. c #9C929D",
"0. c #8B8DA3",
"q. c #8F92A9",
"w. c #9D94A0",
"e. c #9396AC",
"r. c #9699B1",
"t. c #9A9CB5",
"y. c #9B9FB8",
"u. c #A09DB1",
"i. c #9DA1BA",
"p. c #A1A1B7",
"a. c #A1A4BE",
"s. c #A3A7C2",
/* pixels */
"s.s.s._ s.s.s.s.s.s.s._ s.s.s.s.s.s.s.V s.,.< @ - J r.V s.s.s.s.s.s.s.V r.D O O < ,.s.V s.s.s.s.s.s.s.V s.s.s.s.s.s.s._ s.s.s.s.",
"s.s.s._ s.s.s.s.s.s.s._ s.s.s.s.s.s.s.V s.,.< O @ q J b i.s.s.s.s.s.i.b J 7 O O < ,.s.V s.s.s.s.s.s.s.V s.s.s.s.s.s.s._ s.s.s.s.",
"s.s.s._ s.s.s.s.s.s.s._ s.s.s.s.s.s.s.V s.,.7 O O O O 9 i.i.s.s.s.i.r.9 O O O O 7 ,.s.V s.s.s.s.s.s.s.V s.s.s.s.s.s.s._ s.s.s.s.",
"3.3.3.3.3.3.3.3.3.3.3.3.3.3.3.3.3.3.3.3.3.` > O O O O c 1.3.3.3.3.^ x > O O o O > ^ 3.3.3.3.3.3.3.3.3.3.3.3.3.3.3.3.3.3.3.3.3.3.",
"s.s.s.s.s.s.s._ s.s.s.s.s.s.s._ s.s.s.s.s.,.< O O O O D q.t.e.B e.J O O O O O O 7 ,.s.s.s.s.s._ s.s.s.s.s.s.s.V s.s.s.s.s.s.s._ ",
"s.s.s.s.s.s.s._ s.s.s.s.s.s.s._ s.s.s.s.s.,.7 O # + O < D D D 8 D 7 O O O + # O < ,.s.s.s.s.s.V s.s.s.s.s.s.s.V s.s.s.s.s.s.s._ ",
"s.s.s.s.s.s.s._ s.s.s.s.s.s.s._ s.s.s.s.s.,.< + - # O O O O O O O O O O O # ; + 7 ,.s.s.s.s.s.V s.s.s.s.s.s.s.V s.s.s.s.s.s.s._ ",
"3.3.3.3.3.3.3.3.3.3.3.3.3.3.3.3.3.3.3.3.3.^ > @ - # O O O O O O O O O O O # ; + > ' 3.3.3.3.3.3.3.3.3.3.3.3.3.3.3.3.3.3.3.3.3.3.",
"s.s.s._ s.s.s.s.s.s.s._ s.s.s.s.s.s.s.V s.,.7 @ $ # @ O O O O O O o O O O # # @ 0 ,.s.V s.s.s.s.s.s.s._ s.s.s.s.s.s.s._ s.s.s.s.",
"s.s.s._ s.s.s.s.s.s.s._ s.s.s.s.s.s.s.V s.,.7 O $ - $ @ O O O O O O O O O + @ # w <.s.V s.s.s.s.s.s.s._ s.s.s.s.s.s.s._ s.s.s.s.",
"s.s.s._ s.s.s.s.s.s.s._ s.s.s.s.s.s.s.V s.,.< @ $ ; % # O O O O O O O O + O O # r 5.s.V s.s.s.s.s.s.s._ s.s.s.s.s.s.s._ s.s.s.s.",
"3.3.3.3.3.3.3.3.3.3.3.3.3.3.3.3.3.3.3.3.3.^ > @ - ; $ @ O O O O O O O + # + + # 0 ] 3.3.3.3.3.3.3.3.3.3.3.3.3.3.3.3.3.3.3.3.3.3.",
"s.s.s.s.s.s.s._ s.s.s.s.s.s.s._ s.s.s.s.s.,.< @ $ ; ; # O O O O O O + # ; + O - r <.s.s.s.s.s.V s.s.s.s.s.s.s._ s.s.s.s.s.s.s._ ",
"s.s.s.s.s.s.s._ s.s.s.s.s.s.s._ s.s.s.s.s.,.< @ $ ; ; $ O O O O O @ - - ; + O # r <.s.s.s.s.s.V s.s.s.s.s.s.s._ s.s.s.s.s.s.s._ ",
"s.s.s.s.s.s.s._ s.s.s.s.s.s.s._ s.s.s.s.s.,.< + # $ ; # + O O O O # ; ; ; # + # w 5.s.s.s.s.s.V s.s.s.s.s.s.s._ s.s.s.s.s.s.s._ ",
"3.3.3.3.3.3.3.3.3.3.3.3.3.3.3.3.3.3.3.3.3.^ > O @ # - ; - @ O O O # ; ; ; - - + > ( 3.3.3.3.3.3.3.3.3.3.3.3.3.3.3.3.3.3.3.3.3.3.",
"s.s.s._ s.s.s.s.s.s.s._ s.s.s.s.s.s.s._ s.,.7 O O @ - ; ; $ @ O O # ; ; ; ; % + 7 ,.s.V s.s.s.s.s.s.s._ s.s.s.s.s.s.s._ s.s.s.s.",
"s.s.s._ s.s.s.s.s.s.s._ s.s.s.s.s.s.s._ s.,.< O O @ - ; ; - $ @ O # ; ; ; ; - + < 4.s.V s.s.s.s.s.s.s._ s.s.s.s.s.s.s._ s.s.s.s.",
"s.s.s._ s.s.s.s.s.s.s._ s.s.s.s.s.s.s._ s.<.0 O O @ % ; ; ; ; - @ # ; ; ; - # # q ,.s.V s.s.s.s.s.s.s._ s.s.s.s.s.s.s._ s.s.s.s.",
"3.3.3.3.3.3.3.3.3.3.3.3.3.3.3.3.3.3.3.3.3.' 7 # O @ - ; ; ; ; ; $ ; ; - % @ + # 0 ' 3.3.3.3.3.3.3.3.3.3.3.3.3.3.3.3.3.3.3.3.3.3.",
"s.s.s.s.s.s.s._ s.s.s.s.s.s.s._ s.s.s.s.s.0...6 # : Z A A A A A A A A A A : # 6 ..q.s.s.s.s.s.V s.s.s.s.s.s.s._ s.s.s.s.s.s.s._ ",
"s.s.s.s.s.s.s._ s.s.s.s.s.s.s._ s.s.s.s.s.a.t.k ; M >.6.6.6.6.6.6.6.6.6.>.C : k t.i.s.s.s.s.s.V s.s.s.s.s.s.s._ s.s.s.s.s.s.s._ ",
"s.s.s.s.s.s.s._ s.s.s.s.s.s.s._ s.s.s.s.s.s.s.! J H K K } } } } } } } } K H K B s.s.s.s.s.s.s.V s.s.s.s.s.s.s._ s.s.s.s.s.s.s._ ",
"3.3.3.3.3.3.3.3.3.3.3.3.3.3.3.3.3.3.3.3.3.3.3.4.6.} : - : : : : : : : : q } 6.4.3.3.3.3.3.3.3.3.3.3.3.3.3.3.3.3.3.3.3.3.3.3.3.3.",
"s.s.s._ s.s.s.s.s.s.s._ s.s.s.s.s.s.s._ s.e.:.| K r # O # # # # # # # # - n K ) :.q.s.V s.s.s.s.s.s.s._ s.s.s.s.s.s.s._ s.s.s.s.",
"s.s.s._ s.s.s.s.s.s.s._ s.s.s.s.s.s.s._ s.5.r % + O O O O o O O O O O O O O + O 7 ,.s.V s.s.s.s.s.s.s._ s.s.s.s.s.s.s._ s.s.s.s.",
"s.s.s._ s.s.s.s.s.s.s._ s.s.s.s.s.s.s.B :.D 7 # O O O O O O O O O O O O O O O O - D :.B s.s.s.s.s.s.s._ s.s.s.s.s.s.s._ s.s.s.s.",
"3.3.3.3.3.3.3.3.3.3.3.3.3.3.3.3.3.3.3.] w ; ; # O O O O O O O O O O O O O O O O O # q [ 3.3.3.3.3.3.3.3.3.3.3.3.3.3.3.3.3.3.3.3.",
"s.s.s.s.s.s.s._ s.s.s.s.s.s.s._ s.s.s.5.7 O + + O O O O O + # # # # @ + O O O O O O r 5.s.s.s._ s.s.s.s.s.s.s._ s.s.s.s.s.s.s._ ",
"s.s.s.s.s.s.s._ s.s.s.s.s.s.s._ s.s.s.,.> . O O O O O O O # ; ; ; ; - @ O O o O O O q 5.s.s.s._ s.s.s.s.s.s.s._ s.s.s.s.s.s.s._ ",
"s.s.s.s.s.s.s._ s.s.s.s.s.s.s._ s.s.s.<.w O O O # # # # # - ; ; ; ; ; - # O O O O O q 5.s.s.s._ s.s.s.s.s.s.s._ s.s.s.s.s.s.s._ ",
"3.3.3.3.3.3.3.3.3.3.3.3.3.3.3.3.3.;.;.^ 7 # + # ; ; ; ; ; ; ; ; ; ; ; ; % @ O O O O 6 ~ 1.3.3.3.3.3.3.3.3.3.3.3.3.3.3.3.3.3.3.3.",
"s.s.s._ s.s.s.s.s.s.s._ s.s.s.s.s.D D 6 ; # # $ ; ; ; ; ; ; ; $ ; ; ; ; ; - # O O O # = M s.s.s.s.s.s.V s.s.s.s.s.s.s._ s.s.s.s.",
"s.s.s._ s.s.s.s.s.s.s._ s.s.s.s.s.O O o O + $ ; ; ; ; ; ; ; $ $ ; ; ; ; % - % @ O O X .   s.s.s.s.s.s._ s.s.s.s.s.s.s._ s.s.s.s.",
"s.s.s._ s.s.s.s.s.s.s._ s.s.s.s.s.O O O O + $ - ; ; $ $ ; $ @ $ ; ; % # @ - $ @ O O X .   i.s.s.s.s.s._ s.s.s.s.s.s.s._ s.s.s.s.",
"3.3.3.3.3.3.3.3.3.3.3.3.3.3.3.3.3.O O O O + $ $ ; % $ : 3 $ o + % : 2 # O # - @ O O o .   3.3.3.3.3.3.3.3.3.3.3.3.3.3.3.3.3.3.3.",
"s.s.s.s.s.s.s._ s.s.s.s.s.s.s._ s.O O O O O + # ; $ @ t j t + + @ y h 4 O # % @ O # # o o s.s.V s.s.s.s.s.s.s._ s.s.s.s.s.s.s._ ",
"s.s.s.s.s.s.s._ s.s.s.s.s.s.s._ s.O O O + O O + $ ; & s o.s O O O d O.d & % $ @ O = # O o s.s.V s.s.s.s.s.s.s._ s.s.s.s.s.s.s._ ",
"s.s.s.s.s.s.s._ s.s.s.s.s.s.s._ s.O O O # # O @ - 5 h I @.s + + O d @.U f 5 $ @ O O O O o s.s.V s.s.s.s.s.s.s._ s.s.s.s.s.s.s._ ",
"3.3.3.3.3.3.3.3.3.3.3.3.3.3.3.3.3.O O O # # + + $ s o.@.@.g * 1 * g @.@.U d - @ + O O O o 3.3.3.3.3.3.3.3.3.3.3.3.3.3.3.3.3.3.3.",
"s.s.s._ s.s.s.s.s.s.s._ s.s.s.s.s.O O O O + O + $ p o.@.@.o.j j j o.@.@.O.i % - # + O O o s.s.s.s.s.s._ s.s.s.s.s.s.s._ s.s.s.s.",
"s.s.s._ s.s.s.s.s.s.s._ s.s.s.s.s.O O O + O O + $ y h I @.@.@.@.@.@.@.j h 5 - % - O O o O s.s.s.s.s.s._ s.s.s.s.s.s.s._ s.s.s.s.",
"s.s.s._ s.s.s.s.s.s.s._ s.s.s.s.s.O O + # # + + $ % & s o.@.@.@.@.@.@.d & @ + - # + O o o s.s.s.s.s.s._ s.s.s.s.s.s.s._ s.s.s.s.",
"3.3.3.3.3.3.3.3.3.3.3.3.3.3.3.3.3.O o + $ $ @ # $ $ O u o.@.@.@.@.@.O.u O O O - - + O o O 3.3.3.3.3.3.3.3.3.3.3.3.3.3.3.3.3.3.3.",
"s.s.s.s.s.s.s._ s.s.s.s.s.s.s._ s.o o O $ $ $ - ; $ O u @.@.@.@.@.@.O.u O O O # # @ O o o s.s._ s.s.s.s.s.s.s._ s.s.s.s.s.s.s._ ",
"s.s.s.s.s.s.s._ s.s.s.s.s.s.s._ s.o o + $ - ; ; ; # O u o.#.%.Q *.#.O.i @ @ # # % # + O o s.s._ s.s.s.s.s.s.s._ s.s.s.s.s.s.s._ ",
"s.s.s.s.s.s.s._ s.s.s.s.s.s.s._ s.o o o $ ; ; ; ; # O y @.&.u.~ w.*.O.p $ % % - ; - # O o i.s.V s.s.s.s.s.s.s._ s.s.s.s.s.s.s._ ",
"3.3.3.3.3.3.3.3.3.3.3.3.3.3.3.3.3.o o + $ ; ; ; - 2 t g @. .2.3.4.{ g d i 2 % ; ; ; $ O o 3.3.3.3.3.3.3.3.3.3.3.3.3.3.3.3.3.3.3.",
"s.s.s._ s.s.s.s.s.s.s._ s.s.s.s.s.o o O = ; ; ; ; i I o.@.7.s.s.a.| 2 f U i ; ; ; ; # O o s.s.s.s.s.s._ s.s.s.s.s.s.s._ s.s.s.s.",
"s.s.s._ s.s.s.s.s.s.s._ s.s.s.s.s.G G 6 ; $ ; ; ; p o.+.&.9.a.s.a.<./ L O.p ; ; ; # : 6 G s.s.s.s.s.s._ s.s.s.s.s.s.s._ s.s.s.s.",
"s.s.s._ s.s.s.s.s.s.s._ s.s.s.s.s.t.t.v 0 O - ; ; p o.{ u.a.s.s.s.i.t.T U i % ; - O 8 v i.s.s.s.s.s.s._ s.s.s.s.s.s.s._ s.s.s.s.",
"3.3.3.3.3.3.3.3.3.3.3.3.3.3.3.3.3.N N k # O - ; ; p o. .3.3.3.3.3.3.2. .O.i @ % % O # l N 3.3.3.3.3.3.3.3.3.3.3.3.3.3.3.3.3.3.3.",
"s.s.s.s.s.s.s._ s.s.s.s.s.s.s._ s.O O O o + # ; ; p o.*.a.s.s._ s.s.a.*.j u @ $ - O o O O s.s.V s.s.s.s.s.s.s._ s.s.s.s.s.s.s._ ",
"s.s.s.s.s.s.s._ s.s.s.s.s.s.s._ s.o X o o O - 4 s E &.9.s.s.s._ s.s.s.w.*.Y u 2 - O o o o s.s.V s.s.s.s.s.s.s._ s.s.s.s.s.s.s._ ",
"s.s.s.s.s.s.s._ s.s.s.s.s.s.s._ s.O O O O O - i U &.p.s.s.s.s._ s.s.s.s.i.*.U i % + O o O s.s.V s.s.s.s.s.s.s._ s.s.s.s.s.s.s._ ",
"3.3.3.3.3.3.3.3.3.3.3.3.3.3.3.3.3.N N S S x , i U  .2.3.3.3.3.3.3.3.3.3.2. .U i , x N N N 3.3.3.3.3.3.3.3.3.3.3.3.3.3.3.3.3.3.3.",
"s.s.s._ s.s.s.s.s.s.s._ s.s.s.s.s.s.s.V s.5.e i U &.a._ s.s.s.s.s.s.s._ p.&.o.i r <.s.V s.s.s.s.s.s.s._ s.s.s.s.s.s.s._ s.s.s.s.",
"s.s.s._ s.s.s.s.s.s.s._ s.s.s.s.s.s.s.V s.5.e p o.&.p.V s.s.s.s.s.s.s._ p.*.U i r <.s.V s.s.s.s.s.s.s._ s.s.s.s.s.s.s._ s.s.s.s.",
"s.s.s._ s.s.s.s.s.s.s._ s.s.s.s.s.s.s.V y.:.w u j $.e.B s.s.s.s.s.s.s.B e.$.j i r :.t.B s.s.s.s.s.s.s._ s.s.s.s.s.s.s._ s.s.s.s.",
"3.3.3.3.3.3.3.3.3.3.3.3.3.3.3.3.3.3.3.=.! l , 2 i a M ` 1.3.3.3.3.3.1.( S a i 2 , l F =.3.3.3.3.3.3.3.3.3.3.3.3.3.3.3.3.3.3.3.3.",
"s.s.s.s.s.s.s._ s.s.s.s.s.s.s._ s.s.s.8.z ; ; ; ; ; ; / t.s.s.V s.s.t./ % ; ; ; ; ; M 8.s.s.s._ s.s.s.s.s.s.s._ s.s.s.s.s.s.s._ ",
"s.s.s.s.s.s.s._ s.s.s.s.s.s.s._ s.s.s.8.z ; ; ; ; ; ; / i.s.s.V s.s.i./ % % ; ; ; ; n 8.s.s.s._ s.s.s.s.s.s.s._ s.s.s.s.s.s.s._ ",
"s.s.s.s.s.s.s._ s.s.s.s.s.s.s._ s.s.s.8.z ; ; ; ; ; ; / i.s.s.V s.s.i./ ; ; ; ; ; ; M 8.s.s.s._ s.s.s.s.s.s.s._ s.s.s.s.s.s.s._ ",
"3.3.3.3.3.3.3.3.3.3.3.3.3.3.3.3.3.3.3.[ w ; ; ; ; ; ; S 1.3.3.3.3.3.1.N ; ; ; ; ; ; w [ 3.3.3.3.3.3.3.3.3.3.3.3.3.3.3.3.3.3.3.3."
};
