/* XPM */
static char *VFRONT1679997272[] = {
/* columns rows colors chars-per-pixel */
"64 64 250 2 ",
"   c #A3A7C2",
".  c #404973",
"X  c #7F8296",
"o  c #38373E",
"O  c #322720",
"+  c #6F503C",
"@  c #816252",
"#  c #685F62",
"$  c #2F344E",
"%  c #9194AC",
"&  c #3C4469",
"*  c #737585",
"=  c #6E6468",
"-  c #836454",
";  c #6F4F3C",
":  c #322620",
">  c #1F202A",
",  c #393F5E",
"<  c #444349",
"1  c #3E322B",
"2  c #735340",
"3  c #231C19",
"4  c #413127",
"5  c #6D6F80",
"6  c #262938",
"7  c #2C2A2D",
"8  c #29221F",
"9  c #433329",
"0  c #686F99",
"q  c #535877",
"w  c #292934",
"e  c #141212",
"r  c #262528",
"t  c #4A4A54",
"y  c #5B5C6A",
"u  c #2A2D42",
"i  c #161414",
"p  c #1A1818",
"a  c #181616",
"s  c #201D1D",
"d  c #1C1A1A",
"f  c #1E1B1B",
"g  c #221F1F",
"h  c #3E3D44",
"j  c #818498",
"k  c #242121",
"l  c #35353F",
"z  c #575B7B",
"x  c #3E1D1D",
"c  c #721515",
"v  c #83859A",
"b  c #581919",
"n  c #BF0808",
"m  c #332925",
"M  c #503A2C",
"N  c #423228",
"B  c #7D5337",
"V  c #7C5237",
"C  c #413128",
"Z  c #908E9F",
"A  c #6C5C59",
"S  c #5A4234",
"D  c #5D4231",
"F  c #5F4230",
"G  c #6E4A33",
"H  c #8B5B3A",
"J  c #716C85",
"K  c #84675E",
"L  c #906447",
"P  c #976341",
"I  c #9A633E",
"U  c #7D5237",
"Y  c #6B5B58",
"T  c #694B38",
"R  c #8A5B3C",
"E  c #895938",
"W  c #66442D",
"Q  c #463123",
"!  c #29211C",
"~  c #774E32",
"^  c #32251B",
"/  c #101010",
"(  c #33251C",
")  c #784E33",
"_  c #6C4A35",
"`  c #865B3F",
"'  c #734F37",
"]  c #31251D",
"[  c #6E4F3B",
"{  c #2F251E",
"}  c #2F251F",
"|  c #6E4F3C",
" . c #9396AE",
".. c #2F3040",
"X. c #343235",
"o. c #7D5943",
"O. c #5E4534",
"+. c #413228",
"@. c #27211E",
"#. c #1A1919",
"$. c #7D5A43",
"%. c #28262B",
"&. c #54535E",
"*. c #8D644A",
"=. c #2B2B36",
"-. c #805C45",
";. c #664B3B",
":. c #4B3A30",
">. c #312926",
",. c #51525C",
"<. c #2C2C2F",
"1. c #372B25",
"2. c #70513E",
"3. c #594336",
"4. c #6B4B36",
"5. c #825C43",
"6. c #1F1D1D",
"7. c #151414",
"8. c #2F2D2E",
"9. c #454547",
"0. c #4E4948",
"q. c #493A30",
"w. c #583E2E",
"e. c #7B5841",
"r. c #8F6448",
"t. c #926446",
"y. c #855B40",
"u. c #674B39",
"i. c #322F30",
"p. c #4D4B4D",
"a. c #5D5C61",
"s. c #62626C",
"d. c #353A54",
"f. c #3F3D3E",
"g. c #767679",
"h. c #6D6D70",
"j. c #242425",
"k. c #231913",
"l. c #6A4B38",
"z. c #7F8195",
"x. c #36363D",
"c. c #161515",
"v. c #565557",
"b. c #4D4D4F",
"n. c #4D4746",
"m. c #54443B",
"M. c #584235",
"N. c #585759",
"B. c #535355",
"V. c #414142",
"C. c #222121",
"Z. c #7A7D91",
"A. c #292A31",
"S. c #090808",
"D. c #1B1919",
"F. c #717174",
"G. c #303031",
"H. c #0C0C0C",
"J. c #040404",
"K. c #7F8196",
"L. c #36373D",
"P. c #171515",
"I. c #3F3835",
"U. c #74655C",
"Y. c #82736B",
"T. c #686261",
"R. c #5B5A5C",
"E. c #6F6058",
"W. c #302B28",
"Q. c #0E0E0E",
"!. c gray4",
"~. c #2F3037",
"^. c #7C7F93",
"/. c #8E705D",
"(. c #908783",
"). c #919296",
"_. c #908683",
"`. c #8E6F5D",
"'. c #262832",
"]. c #525777",
"[. c #282A3A",
"{. c #323033",
"}. c #8E6A54",
"|. c #8E7566",
" X c #8F7B70",
".X c #8D6A53",
"XX c #14151B",
"oX c #41434D",
"OX c #515361",
"+X c black",
"@X c #40322A",
"#X c #78533B",
"$X c #926445",
"%X c #8F6449",
"&X c #84593D",
"*X c #65442E",
"=X c gray3",
"-X c #986340",
";X c #956342",
":X c #98633F",
">X c #312723",
",X c #4A3426",
"<X c #68452D",
"1X c #895939",
"2X c #483224",
"3X c #2B221D",
"4X c #191717",
"5X c #131212",
"6X c #36261D",
"7X c #794F33",
"8X c #784F33",
"9X c #35261D",
"0X c #111111",
"qX c #463022",
"wX c #251C17",
"eX c #100F0F",
"rX c #1F1C1C",
"tX c #151313",
"yX c #100E0E",
"uX c #121010",
"iX c #171414",
"pX c #644531",
"aX c #805A42",
"sX c #66452F",
"dX c #352F2F",
"fX c #776969",
"gX c #66565F",
"hX c #988686",
"jX c #867370",
"kX c #624E44",
"lX c #1C1919",
"zX c #5A5B68",
"xX c #252737",
"cX c #2A282C",
"vX c #26242A",
"bX c #4E4E58",
"nX c #2B2C3C",
"mX c #28262A",
"MX c #211F1F",
"NX c #1E1C22",
"BX c #525776",
"VX c #262631",
"CX c #595A68",
"ZX c #474852",
"AX c #222125",
"SX c #52525C",
"DX c #2E2D30",
"FX c #282C41",
"GX c #4C4D57",
"HX c #312F33",
/* pixels */
"      .               .               .   X o O + @ # $ %             & * = - ; : o X .               .               .         ",
"      .               .               .   X o O + ; : > X             , < 1 2 ; : o X .               .               .         ",
"      .               .               .   X o 3 4 4 3 > X         % 5 6 7 8 9 4 3 o X .               .               .         ",
"0 0 0 0 0 0 0 0 0 0 0 0 0 0 0 0 0 0 0 0 0 q w e e e e w q 0 0 0 0 q w e e e e e e w q 0 0 0 0 0 0 0 0 0 0 0 0 0 0 0 0 0 0 0 0 0 ",
"              .               .           X o e e e e r t y y u y t r e e i p p i o X         .               .               . ",
"              .               .           X o e e e e e e e e e e e e e e a s s a o X         .               .               . ",
"              .               .           X o i p d d d d p i e e i p d d f g g f h j         .               .               . ",
"0 0 0 0 0 0 0 0 0 0 0 0 0 0 0 0 0 0 0 0 0 q w a s k k k k s a e e a s k k k k k k l z 0 0 0 0 0 0 0 0 0 0 0 0 0 0 0 0 0 0 0 0 0 ",
"      .               .               .   j h f g x c c x s a e e a s x c c x k k < v .               .               .         ",
"      .               .               .   v < k k b n n b s a e e a s b n n b k k < v .               .               .         ",
"      .               .               .   v < k k x c c x g f d d f g x c c x k k < v .               .               .         ",
"0 0 0 0 0 0 0 0 0 0 0 0 0 0 0 0 0 0 0 0 0 z l k k k k k k k k k k k k k k k k k k l z 0 0 0 0 0 0 0 0 0 0 0 0 0 0 0 0 0 0 0 0 0 ",
"              .               .           v < k k k k m M M m k k m M M m k k k k < v         .               .               . ",
"              .               .           v < k k k k N B V C k k N B V C k k k k < v         .               .               . ",
"              .               .           Z A S D F F G H V C k k N B H G F F D S A Z         .               .               . ",
"0 0 0 0 0 0 0 0 0 0 0 0 0 0 0 0 0 0 0 0 0 J K L P I I I I V C k k N U I I I I P L K J 0 0 0 0 0 0 0 0 0 0 0 0 0 0 0 0 0 0 0 0 0 ",
"      .               .               .   Z Y T R I I E W Q ! p p ! Q W E I I R T Y Z .               .               .         ",
"      .               .               .   v < N B I I ~ ^ / / / / / / ( ) I I V C < v .               .               .         ",
"      .               .               .   v < m M _ ` ' ] / / / / / / ] ' ` _ M m < v .               .               .         ",
"0 0 0 0 0 0 0 0 0 0 0 0 0 0 0 0 0 0 0 0 0 z l k k 1 2 [ { / / / / / / } | 2 1 k k l z 0 0 0 0 0 0 0 0 0 0 0 0 0 0 0 0 0 0 0 0 0 ",
"              .               .            .* ..X.1 2 o.O.+.@.#.#.@.+.O.$.2 1 %.&.*  .        .               .               . ",
"              .               .               , < 1 2 *.*.2 1 k k 1 2 *.*.2 1 =.v             .               .               . ",
"              .               .               , < 1 2 -.;.:.>.k k >.:.;.-.2 1 =.v             .               .               . ",
"0 0 0 0 0 0 0 0 0 0 0 0 0 0 0 0 0 0 0 0 0 0 0 z l 1 2 2 1 k k k k k k 1 2 2 1 l z 0 0 0 0 0 0 0 0 0 0 0 0 0 0 0 0 0 0 0 0 0 0 0 ",
"      .               .               .    .* ,.<.1.2.-.;.3.3.3.3.S D 4.5.2 1 X.&.*  ..               .               .         ",
"      .               .               .   v < 6.7.} | *.*.*.*.*.*.L P P L 2 1 k k < v .               .               .         ",
"      .               .               & * &.X.8.9.0.q.w.e.*.*.*.*.r.t.y.u.:.>.i.p.a.s.d. .            .               .         ",
"0 0 0 0 0 0 0 0 0 0 0 0 0 0 0 0 0 0 0 z l k k f.g.h.j.k.l.*.*.*.*.*.*.2 1 k k f.g.g.f.l z 0 0 0 0 0 0 0 0 0 0 0 0 0 0 0 0 0 0 0 ",
"              .               .       z.x.c.s i.p.v.b.n.m.M.M.M.M.M.M.:.>.i.p.N.B.V.C.x.z.    .               .               . ",
"              .               .       Z.A.S.D.k k f.g.g.f.k k k k k k k k f.g.F.G.H.J.A.Z.    .               .               . ",
"              .               .       K.L.P.s k k I.U.Y.T.R.R.R.R.R.R.R.R.T.Y.E.W.Q.!.~.^.    .               .               . ",
"0 0 0 0 0 0 0 0 0 0 0 0 0 0 0 0 0 0 0 z l k k k k 1 2 /.(.).).).).).).).)._.`.[ { / / '.].0 0 0 0 0 0 0 0 0 0 0 0 0 0 0 0 0 0 0 ",
"      .               .           y y [.{.k k k k 1 2 }.|. X X X X X X X X|..X[ { / / XXoXOX          .               .         ",
"      .               .           e e a s k k k k 1 2 *.*.*.*.*.*.*.*.*.*.*.*.[ { / / H.J.+X          .               .         ",
"      .               .           e e a s k k k k @X#X$X%X*.*.*.*.*.*.*.*.*.*.[ { / / H.J.+X          .               .         ",
"0 0 0 0 0 0 0 0 0 0 0 0 0 0 0 0 0 e e a s k k k k N B P L *.*.*.*.*.*.*.*.*.*.[ { / / H.J.+X0 0 0 0 0 0 0 0 0 0 0 0 0 0 0 0 0 0 ",
"              .               .   e e a s k k m M G H P L *.*.*.*.*.*.*.*.r.$X&X*XQ ! i H.=X  .               .               . ",
"              .               .   e e a s k k N B I I P L *.*.*.*.*.*.*.*.L P I I V C 6.7./   .               .               . ",
"              .               .   e e a s k k N B I I -X;X$X%X*.*.*.*.r.$X;X:XI I V C 6.7./   .               .               . ",
"0 0 0 0 0 0 0 0 0 0 0 0 0 0 0 0 0 e e a s k k N B I I I I P L *.*.*.*.L P I I I I V C 6.7./ 0 0 0 0 0 0 0 0 0 0 0 0 0 0 0 0 0 0 ",
"      .               .           e e a s k k >X,X<X1XI I P L *.*.*.*.L P I I E <X2X3X4X5X/           .               .         ",
"      .               .           e e a s k k s a 6X7XI I P L *.*.*.*.L P I I 8X9Xe e 5X0X/           .               .         ",
"      .               .           e e a s k k g f 3X2X<X1XP L *.*.r.$X;X:XE <XqXwXi p 4X5XeX          .               .         ",
"0 0 0 0 0 0 0 0 0 0 0 0 0 0 0 0 0 e e a s k k k k s a 6X7XP L *.*.L P I I 8X9Xe e a s rXtXyX0 0 0 0 0 0 0 0 0 0 0 0 0 0 0 0 0 0 ",
"              .               .   uXuXiXs k k k k g f 3X2XpXaX*.*.r.t.&XsXqXwXe e a s rXtXyX  .               .               . ",
"              .               .   yXyXtXrXk k k k k k s a O + *.*.*.*.; : e e e e a s rXtXyX  .               .               . ",
"              .               .   yXyXtXrXk k k k k k s a dXfXgXhXjXkX9 8 d d d d f g rXtXyX  .               .               . ",
"0 0 0 0 0 0 0 0 0 0 0 0 0 0 0 0 0 yXyXtXrXk k k k k k s a w q 0 0 q w a s k k k k k k rXtXyX0 0 0 0 0 0 0 0 0 0 0 0 0 0 0 0 0 0 ",
"      .               .           yXyXtXrXk k k k k k s a o X     j h d lXf g k k k k rXtXyX          .               .         ",
"      .               .           yXyXtXrXk k k k k k s a o X     v < s a a s k k k k rXtXyX          .               .         ",
"      .               .           zXzXxXcXd g k k k k vXbX5 %      .* nXmXa s k k MXd NXt zX          .               .         ",
"0 0 0 0 0 0 0 0 0 0 0 0 0 0 0 0 0 0 0 BXVXtXrXk k k k l z 0 0 0 0 0 0 q w a s k k rXtXVXBX0 0 0 0 0 0 0 0 0 0 0 0 0 0 0 0 0 0 0 ",
"              .               .   CXCXZXAXtXrXk k k k < v     .       j h d lXf g rXtXAXZXCX  .               .               . ",
"              .               .   yXyXyXyXtXrXk k k k < v     .       v < s a a s rXtXyXyXyX  .               .               . ",
"              .               .   yXyXyXyXtXrXk k X.&.*  .    .        .* SXDXf g rXtXyXyXyX  .               .               . ",
"0 0 0 0 0 0 0 0 0 0 0 0 0 0 0 0 0 yXyXyXyXtXrXk k l z 0 0 0 0 0 0 0 0 0 0 z l k k rXtXyXyXyX0 0 0 0 0 0 0 0 0 0 0 0 0 0 0 0 0 0 ",
"      .               .           zXzXFXzXGXHXk k < v .               .   v < k k HXGXFXzXzX          .               .         ",
"      .               .               .   v < k k < v .               .   v < k k < v .               .               .         ",
"      .               .               .   v < k k < v .               .   v < k k < v .               .               .         ",
"0 0 0 0 0 0 0 0 0 0 0 0 0 0 0 0 0 0 0 0 0 z l k k l z 0 0 0 0 0 0 0 0 0 0 z l k k l z 0 0 0 0 0 0 0 0 0 0 0 0 0 0 0 0 0 0 0 0 0 ",
"              .               .        .* &.X.k k X.&.*  .    .        .* &.X.k k X.&.*  .    .               .               . ",
"              .               .       v < k k k k k k < v     .       v < k k k k k k < v     .               .               . ",
"              .               .       v < k k k k k k < v     .       v < k k k k k k < v     .               .               . ",
"0 0 0 0 0 0 0 0 0 0 0 0 0 0 0 0 0 0 0 z l k k k k k k l z 0 0 0 0 0 0 z l k k k k k k l z 0 0 0 0 0 0 0 0 0 0 0 0 0 0 0 0 0 0 0 "
};
