/* XPM */
static char *VLEFT1679997272[] = {
/* columns rows colors chars-per-pixel */
"64 64 176 2 ",
"   c #151313",
".  c #191616",
"X  c #171518",
"o  c #191718",
"O  c #1C1A1A",
"+  c #1D1917",
"@  c #211E1E",
"#  c #3D2B1F",
"$  c #1E1E24",
"%  c #201F27",
"&  c #242121",
"*  c #2B2624",
"=  c #2C2827",
"-  c #24242C",
";  c #292629",
":  c #2B292C",
">  c #322926",
",  c #322D2B",
"<  c #3A2F2A",
"1  c #382623",
"2  c #3F322B",
"3  c #2C2C33",
"4  c #2D2D3A",
"5  c #252838",
"6  c #312F33",
"7  c #333236",
"8  c #383636",
"9  c #35343A",
"0  c #3B3A3D",
"q  c #472525",
"w  c #423127",
"e  c #4C372B",
"r  c #47382F",
"t  c #49392F",
"y  c #43342C",
"u  c #573D2D",
"i  c #583E2E",
"p  c #463731",
"a  c #4A3930",
"s  c #403E3F",
"d  c #543E32",
"f  c #6F2A2A",
"g  c #544034",
"h  c #584235",
"j  c #634532",
"k  c #654A3A",
"l  c #6B4D3A",
"z  c #6F4C35",
"x  c #734D33",
"c  c #6E503E",
"v  c #73533E",
"b  c #7B5339",
"n  c #2F3142",
"m  c #2E324B",
"M  c #303140",
"N  c #3C3C43",
"B  c #36384C",
"V  c #353952",
"C  c #373B54",
"Z  c #403F46",
"A  c #3F4054",
"S  c #3D456B",
"D  c #3F4871",
"F  c #444243",
"G  c #45444C",
"H  c #4C4B4C",
"J  c #574D4D",
"K  c #404254",
"L  c #4A4A51",
"P  c #44465B",
"I  c #46485C",
"U  c #4D4B57",
"Y  c #535253",
"T  c #52525C",
"R  c #5E5D5F",
"E  c #6D554A",
"W  c #655046",
"Q  c #755542",
"!  c #795947",
"~  c #634C54",
"^  c #765C56",
"/  c #484C65",
"(  c #484C6E",
")  c #514F6A",
"_  c #4D506A",
"`  c #565661",
"'  c #5A5B66",
"]  c #50536F",
"[  c #5D5E6A",
"{  c #5C5565",
"}  c #404973",
"|  c #4F5371",
" . c #535774",
".. c #565B7A",
"X. c #585D7F",
"o. c #555977",
"O. c #615E74",
"+. c #5F606C",
"@. c #636264",
"#. c #62626D",
"$. c #6C6C6E",
"%. c #7F6867",
"&. c #7D696C",
"*. c #766666",
"=. c #656674",
"-. c #676876",
";. c #686877",
":. c #6B6C7C",
">. c #786A77",
",. c #736978",
"<. c #727276",
"1. c #8C2E2E",
"2. c #855A3D",
"3. c #9A633E",
"4. c #825D45",
"5. c #8D644A",
"6. c #946343",
"7. c #996441",
"8. c #906448",
"9. c #9B6A4C",
"0. c #826050",
"q. c #8F6A53",
"w. c #8A6550",
"e. c #906D5A",
"r. c #91705F",
"t. c #836760",
"y. c #94786F",
"u. c #927263",
"i. c #887B78",
"p. c #877779",
"a. c #967F79",
"s. c #957C74",
"d. c #8F8078",
"f. c #96817E",
"g. c #595E81",
"h. c #5C6184",
"j. c #5E6489",
"k. c #676886",
"l. c #6C6D82",
"z. c #62688F",
"x. c #6F6D8B",
"c. c #726C86",
"v. c #727484",
"b. c #757789",
"n. c #7A7C8E",
"m. c #646B92",
"M. c #6B6E92",
"N. c #676E98",
"B. c #686F99",
"V. c #7C7E91",
"C. c #8A8B8F",
"Z. c #848588",
"A. c #978280",
"S. c #988687",
"D. c #99898C",
"F. c #8D8E92",
"G. c #83859A",
"H. c #938C97",
"J. c #9C939C",
"K. c #A1949E",
"L. c #8A8DA3",
"P. c #8E91A8",
"I. c #9D96A4",
"U. c #9E98A7",
"Y. c #9194AC",
"T. c #9E9BAB",
"R. c #9496A1",
"E. c #9699B1",
"W. c #9A9DB4",
"Q. c #A197A3",
"!. c #A09CAF",
"~. c #A09DB0",
"^. c #9EA1B5",
"/. c #9EA2BC",
"(. c #A1A4BD",
"). c #A3A7C2",
/* pixels */
").).).} ).).).).).).).} ).).).).).).).} ).).).).).).).} ).).).).).).).} ).).).).).).).} ).).).).).).).} ).).).).).).).} ).).).).",
").).).} ).).).).).).).} ).).).).).).).} ).).).).).).).} ).).).).).).).} ).).).).).).).} ).).).).).).).} ).).).).).).).} ).).).).",
").).).} ).).).).).).).} ).).).).).).).D ).).).).).).).} ).).).).).).).} ).).).).).).).} ).).).).).).).} ).).).).).).).} ).).).).",
"B.B.B.B.B.B.B.B.B.B.B.B.B.B.B.B.B.B.B.B.B.B.B.B.B.B.B.B.B.B.B.B.B.B.B.B.B.B.B.B.B.B.B.B.B.B.B.B.B.B.B.B.B.B.B.B.B.B.B.B.B.B.B.B.",
").).).).).).).} ).).).).).).).} ).).).).).).).D ).).).).).).).} ).).).).).).).} ).).).).).).).} ).).).).).).).} ).).).).).).).} ",
").).).).).).).} ).).).).).).).} ).).).).).).).D ).).).).).).).} ).).).).).).).} ).).).).).).).} ).).).).).).).} ).).).).).).).} ",
").).).).).).).} ).).).).).).).} /.).).).).).).D ).).).).).).).} ).).).).).).).} ).).).).).).).} ).).).).).).).} ).).).).).).).} ",
"B.B.B.B.B.B.B.B.B.B.B.B.B.B.B.B.B...: ] B.B.B.B.B.B.B.B.B.B.B.B.B.B.B.B.B.B.B.B.B.B.B.B.B.B.B.B.B.B.B.B.B.B.B.B.B.B.B.B.B.B.B.B.",
").).).} ).).).).).).).} ).).(.K.J.d.; V /.).).).).).).} ).).).).).).).} ).).).).).).).} ).).).).).).).} ).).).).).).).} ).).).).",
").).).} ).).).).).).).} ).).Q.9.3.b * V ).).).).).).).} ).).).).).).).} ).).).).).).).} ).).).).).).).} ).).).).).).).} ).).).).",
").).).} ).).).).).).).} ).).Q.9.3.b * 3 T T G.).).).).} ).).).).).).).} ).).).).).).).} ).).).).).).).} ).).).).).).).} ).).).).",
"B.B.B.B.B.B.B.B.B.B.h. . . .{ v x j * & & & ] B.B.B.B.B.B.B.B.B.B.B.B.B.B.B.B.B.B.B.B.B.B.B.B.B.B.B.B.B.B.B.B.B.B.B.B.B.B.B.B.B.",
").).).).).).).} ).).[ * * * & * * & & & & & b.D ).).).).).).).} ).).).).).).).} ).).).).).).).} ).).).).).).).} ).).).).).).).} ",
").).).).).).).D ).).[ @ @ & & & & & & & & & v.D ).).).).).).).} ).).).).).).).} ).).).).).).).} ).).).).).).).} ).).).).).).).} ",
"n.V.V.n.V.V.V.C n.n.~ q & & & % & & & & & & b.D ).).).).).).).} ).).).).).).).} ).).).).).).).} ).).).).).).).} ).).).).).).).} ",
"& & & & & & & & & & f 1.1 & & & & & & & & & ] B.B.B.B.B.B.B.B.B.B.B.B.B.B.B.B.B.B.B.B.B.B.B.B.B.B.B.B.B.B.B.B.B.B.B.B.B.B.B.B.B.",
"& e x x x j * & & & 1 q * @ & & & & & & & & N -./.).).} ).).).).).).).} ).).).).).).).D ).).).).).).).} ).).).).).).).} ).).).).",
"t l 6.7.6.2.i e e e e e t 1 & & & & & & & & & H /.).).D ).).).).).).).} ).).).).).).).D ).).).).).).).} ).).).).).).).} ).).).).",
"5.5.5.5.5.8.3.3.3.3.3.3.3.u & & & & & & & @ & L /.).).D ).).).).).).).} ).).).).).).).D ).).).).).).).} ).).).).).).).} ).).).).",
"5.5.5.5.5.8.7.3.3.3.3.3.3.i & & & @ & & & % @ N B.B.B.B.B.B.B.B.B.B.B.B.B.B.B.B.B.B.B.B.B.B.B.B.B.B.B.B.B.B.B.B.B.B.B.B.B.B.B.B.",
"s.r.5.5.5.8.6.7.6.6.3.3.3.i & & & & & & & & & 9 E.^.^.(.).).).D ).).).).).).).} ).).).).).).).D ).).).).).).).} ).).).).).).).D ",
").D.5.w.5.5.5.5.5.5.5.5.3.i & & & & & & & & * F C.F.R.(.).).).D ).).).).).).).} ).).).).).).).D ).).).).).).).} ).)./.^.).).).D ",
").!.J.J.J.D.q.5.5.5.5.5.8.2.j * & & & & & % Y R 0 0 +./.).)./.D ).).).).).).).} ).).).).).).).D ).).).).).).).} ).^.T A T Y.).D ",
"B.B.B.B.B.x.>.%.%.%.%.t.5.6.b * & & & 8 H H R Y .   - _ j.B.B.B.B.B.B.B.B.B.B.B.B.B.B.B.B.B.B.B.B.B.B.B.B.B.B.B.h.A $   % j.B.B.",
").).).} ).).).).).).).] e.5.Q > & & * @.C.F.H @         <./././.).).).D ).).).).).).).D ).).).).).).).D ).).)./.+.      - L.).).",
").).).} ).).).).).).).( U.y.v = & 8 $.Y A g , & @ @ O @ 6 A A V.).).).D ).).).).).).).D ).).).).).).).D ).).^.T :       - L.).).",
").).).} ).).).).).).).} ).f.v * & s C.Y & & & & & & & & o     v.).).).D ).).).).).).).D ).).).).).).).D ).).Y.7         - L.).).",
"B.B.B.B.B.B.B.B.B.B.N.N.B.&.Q , = F Z.H & & & & & & & & o     / N.N.m.m.m.m.m.N.m.m.m.m.N.m.m.m.m.N.z.m.z.z.h.-         % h.B.N.",
").).).).).).).} ).).).).).!.H.<.<.@.F : & & & & & & & & @ @ @ $ A 0 8 A G G H 4 G H G G G G G 3 A A 8 0 0 A 8 .     O & 7 P./.D ",
").).).).).).).} ).).).).).).W.i.d.*.= & & & @ O & & & & & & & O   o . @ & & & & & & & & & & & & & @ o O o o       O L ` +.E.).D ",
").).).).).).).} ).).).).).).Q.0.q.Q > = = * O . & & & & & & & & & & & & & & & & & & & & & & & & & & & & & & & . . : L.).).).).D ",
"B.B.B.B.B.B.B.B.B.B.B.B.B.B.M.x.c.,.Q v v v < . @ & & & & & & & & & & & & & & & & & & & & & & & & & & & & & & @ y E x.B.B.B.B.B.",
").).).} ).).).).).).).} ).).).).).I.q.5.5.5.w . & & & & & & & & & & & & & & & & & & & & & & & & & & & @ & & & & g q.T.} ).).).).",
").).).} ).).).).).).).} ).).).).).I.e.5.5.5.w . @ & @ & & & & & & & & & & & & & & & & & & & & & & & & & & & & & g e.Q.} ).).).).",
").).).} ).).).).).).).} ).).).).)./.U.^ 5.5.w   . . + & & & & & @ & & & & & & & & & & & & & & & & & & & & & & & g e.T.} ).).).).",
"B.B.B.B.B.B.B.B.B.B.B.B.B.B.B.B.B.B.B.%.5.5.j #     . & & & @ & & & & & & & & & & & & & & & & & & & & & & & & & g w.&.<.>.M.B.B.",
").).).).).).).} ).).).).).).).} ).).).f.5.5.7.x .   . & & & & & & & & & & & & & & & & & & & & & & & & & & & @ & d 5.5.5.r.T.).D ",
").).).).).).).} ).).).).).).).} ).).).a.5.5.6.x     . & & & & & & & & & & & & & & & & & & & & & & & & & & & & & d 5.5.5.r.T.).D ",
").).).).).).).} ).).).).).).).} ).).).J.A.A.r.z .   . & & & & & & & & & & & & & @ + O O @ & & & & & & & & & & & 2 k 4.5.q.A.T.} ",
"B.B.B.B.B.B.B.B.B.B.B.B.B.B.B.B.M.N.N.N.B.B.t.z     . & & & & & & & & & > > * * & +     o @ & & & & & & & & & & % = Q 4.4.4.*.M.",
").).).} ).).).).).).).} ).).).).).).).} ).).a.l .   o & & & & & & & & y Q v ! v v g @ @ O   & & & & & & & & & & O + > < < < W u.",
").).).} ).).).).).).).} ).).).).).).).} ).).a.l     o & & & & & & & @ g 5.5.5.5.5.l & & @   @ & & & & & & & & & O   @ & & & h 5.",
").).).} ).).).).).).).} ).).).).).).).} ).).i.j o . O & & & & & & & & g e.e.r.r.e.E 8 ; -   @ & @ & & & & * , 7 * . O @ & & h 5.",
"B.B.B.B.B.B.B.B.B.B.B.B.B.B.B.B.B.B.B.B.B.N.U > @ @ @ & & & & o o @ @ 0 x.x.l.b.x.k.X.h.A       . @ @ & & t ! O.A @ O . o @ h 5.",
").).).).).).).} ).).).).).).).} ).).).).).).` % & & 9 +.#.#.#.$ . O & T ).).).D ).).).).:.@       @ @ & & J D.( G.` : O O O g 5.",
").).).).).).).} ).).).).).).).} ).).).E.Y.P.U @ & & L /.).).).5 &   O L P./.(.D ).).).).b.7 o     @ & & & [ ).} ).E.U 9 3 O e ! ",
").).).).).).).} ).).).).).).).} ).).).=.0 0 > & & & L (.).).).S -.& O & A G.(.D ).).).).^.G.7   . @ & & & [ ).} ).(.Y.L.V.: @ < ",
"B.B.B.B.B.B.B.B.B.B.B.B.B.B.B.B.B.B.B.K & & & 3 P I | N.B.B.B.B.h.A - o @  .B.B.B.B.B.B.X.A $     O 9 I I  .B.B.B.B.N.N.h.& + & ",
").).).} ).).).).).).).} ).).).).).).).n & & & L /.).).D ).).).).(.(.G o * V.).).).).).D -.        @ ' } ).).).).).).).D P.3 O & ",
").).).} ).).).).).).).} ).).).).).).).M & & & L /.).).D ).).).).).(.A o ; V.).).).).).D :.        O ' } ).).).).).).).D P.4 O & ",
").).).} ).).).).).).).} ).).).).(.Y.-.3 & & & L /.).).D ).).).).).).G . & V.).).).).).D :.        @ ' } ).).).).).).).D P.3 O & ",
"B.B.B.B.B.B.B.B.B.B.B.B.B.B.N.h.h._ ; & & & : K N.B.B.B.B.B.B.B.m.X.3 o ;  .B.B.B.m.g.g.A     . O : / B.B.B.B.B.B.B.j.g.| - O & ",
").).).).).).).} ).).).).).).L.3 9 7 & & & & -.D ).).).).).).).} V.: & & - V.).} ).b.: : ; @ @ & : b.W.).).).).D ).Y.G ; ; & & & ",
").).).).).).).} ).).).).).V.T & & & & L -.-.L.D ).).).).).).).m G O @ 0 -.P.).} l.N     o ; T B :.Y.).).).).W.m ' T - O O & G B ",
").).).).).).).} ).).).).).' & & & & @ v.).).).D ).).).).).).).5 o & & T ).).).D N       . : G.D ).).).).).).Y.$     @ & & & =.D ",
"B.B.B.B.B.B.B.B.B.B.B.B.B.K & & & & & _ B.B.B.B.B.B.B.B.B.B.B.n o @ @ A B.B.B.m.5       O : ..N.B.B.B.B.B.B.j.:     @ & & & P N.",
").).).} ).).).).).).).} ).' & & - - & C ).).).).).).).D ).).).L o & & 9 ).).)./.N X     O : G.).).).).} ).).Y.9     & & & & =.).",
").).).} ).).).).).).).} ).).).).).).).D ).).).).).).).D ).).).).).(.).} ).).).).).).).D ).).).).).).).D ).).).).).).).D ).).).).",
").).).} ).).).).).).).} ).).).).).).).D ).).).).).).).D ).).).).).).).} ).).).).).).).} ).).).).).).).D ).).).).).).).D ).).).).",
"B.B.B.B.B.B.B.B.B.B.B.B.B.B.B.B.B.B.B.B.B.B.B.B.B.B.B.B.B.B.B.B.B.B.B.B.B.B.B.B.B.B.B.B.B.B.B.B.B.B.B.B.B.N.B.B.N.B.B.B.N.N.N.N.",
").).).).).).).} ).).).).).).).} ).).).).).).).D ).).).).).).).D ).).).).).).).D ).).).).).).).} ).).).).).).).} ).).).).).).).D ",
").).).).).).).} ).).).).).).).} ).).).).).).).D ).).).).).).).D ).).).).).).).D ).).).).).).).} ).).).).).).).} ).).).).).).).} ",
").).).).).).).} ).).).).).).).} ).).).).).).).D ).).).).).).).D ).).).).).).).D ).).).).).).).} ).).).).).).).} ).).).).).).).} ",
"B.B.B.B.B.B.B.B.B.B.B.B.B.B.B.B.B.B.B.B.B.B.B.B.B.B.B.B.B.B.B.B.B.B.B.B.B.B.B.B.B.B.B.B.B.B.B.B.B.B.B.B.B.B.B.B.B.B.B.B.B.B.B.B."
};
