/* XPM */
static char *VRIGHT1679997272[] = {
/* columns rows colors chars-per-pixel */
"64 64 175 2 ",
"   c #151313",
".  c #191616",
"X  c #191718",
"o  c #1C1A1A",
"O  c #1D1917",
"+  c #211E1E",
"@  c #3D2B1F",
"#  c #1D1C21",
"$  c #201F22",
"%  c #242121",
"&  c #2B2624",
"*  c #2C2827",
"=  c #23232C",
"-  c #29272A",
";  c #2B292D",
":  c #322926",
">  c #322D2B",
",  c #3A2F2A",
"<  c #382623",
"1  c #3F322B",
"2  c #2D2C33",
"3  c #2C2D39",
"4  c #252634",
"5  c #312F33",
"6  c #2E303F",
"7  c #333236",
"8  c #383636",
"9  c #35343A",
"0  c #3B3A3D",
"q  c #472525",
"w  c #423127",
"e  c #4C372B",
"r  c #47382F",
"t  c #49392F",
"y  c #43342C",
"u  c #573D2D",
"i  c #583E2E",
"p  c #4A3A33",
"a  c #403E3F",
"s  c #543E32",
"d  c #6F2A2A",
"f  c #544034",
"g  c #584235",
"h  c #634532",
"j  c #654A3A",
"k  c #6B4D3A",
"l  c #6F4C35",
"z  c #734D33",
"x  c #6E503E",
"c  c #73533E",
"v  c #7B5339",
"b  c #292C40",
"n  c #2E334C",
"m  c #303140",
"M  c #3C3C43",
"N  c #30354E",
"B  c #34384F",
"V  c #3C3D4B",
"C  c #373C59",
"Z  c #393F5F",
"A  c #383C55",
"S  c #403F45",
"D  c #3F4054",
"F  c #394165",
"G  c #444243",
"H  c #45454C",
"J  c #4C4B4C",
"K  c #574D4D",
"L  c #404254",
"P  c #4A4A51",
"I  c #44465B",
"U  c #46485C",
"Y  c #4D4B57",
"T  c #535253",
"R  c #52525D",
"E  c #5E5D5F",
"W  c #6D554A",
"Q  c #655046",
"!  c #755542",
"~  c #795947",
"^  c #634C54",
"/  c #725A58",
"(  c #484C65",
")  c #4D506A",
"_  c #575761",
"`  c #5B5B66",
"'  c #52526C",
"]  c #5D5E6A",
"[  c #5C5565",
"{  c #404973",
"}  c #4F5371",
"|  c #535774",
" . c #565B7A",
".. c #585D7F",
"X. c #555977",
"o. c #615E74",
"O. c #5F606C",
"+. c #5A607C",
"@. c #636264",
"#. c #62626D",
"$. c #6C6C6E",
"%. c #7F6867",
"&. c #7D696C",
"*. c #766666",
"=. c #656674",
"-. c #676876",
";. c #686877",
":. c #6B6C7C",
">. c #786A77",
",. c #736978",
"<. c #757578",
"1. c #8C2E2E",
"2. c #855A3D",
"3. c #9A633E",
"4. c #825D45",
"5. c #83604F",
"6. c #8D644A",
"7. c #946343",
"8. c #996441",
"9. c #906448",
"0. c #9B6A4C",
"q. c #826050",
"w. c #8F6A54",
"e. c #8A6550",
"r. c #906E5B",
"t. c #91705F",
"y. c #836760",
"u. c #94786F",
"i. c #927263",
"p. c #877779",
"a. c #967F79",
"s. c #8F8078",
"d. c #94827E",
"f. c #595E81",
"g. c #5C6184",
"h. c #5E6489",
"j. c #676886",
"k. c #696987",
"l. c #62688F",
"z. c #6F6D8B",
"x. c #726C86",
"c. c #717384",
"v. c #757789",
"b. c #7A7C8E",
"n. c #646B92",
"m. c #6B6E92",
"M. c #676E98",
"N. c #686F99",
"B. c #7C7E91",
"V. c #8A8B8F",
"C. c #848588",
"Z. c #978280",
"A. c #988687",
"S. c #99898C",
"D. c #8D8E92",
"F. c #838599",
"G. c #938C97",
"H. c #9C939C",
"J. c #A1949E",
"K. c #8A8DA3",
"L. c #9E97A5",
"P. c #9E98A7",
"I. c #9295AC",
"U. c #9F9AAA",
"Y. c #9496A1",
"T. c #9699B1",
"R. c #9A9DB4",
"E. c #A197A3",
"W. c #A09CAF",
"Q. c #A09DB0",
"!. c #9EA1B5",
"~. c #9EA2BB",
"^. c #A1A4BD",
"/. c #A1A0B5",
"(. c #A3A7C2",
/* pixels */
"(.(.(.{ (.(.(.(.(.(.(.{ (.(.(.(.(.(.(.{ (.(.(.(.(.(.(.{ (.(.(.(.(.(.(.{ (.(.(.(.(.(.(.{ (.(.(.(.(.(.(.{ (.(.(.(.(.(.(.{ (.(.(.(.",
"(.(.(.{ (.(.(.(.(.(.(.{ (.(.(.(.(.(.(.{ (.(.(.(.(.(.(.{ (.(.(.(.(.(.(.{ (.(.(.(.(.(.(.{ (.(.(.(.(.(.(.{ (.(.(.(.(.(.(.{ (.(.(.(.",
"(.(.(.{ (.(.(.(.(.(.(.{ (.(.(.(.(.(.(.{ (.(.(.(.(.(.(.{ (.(.(.(.(.(.(.{ (.(.(.(.(.(.(.{ (.(.(.(.(.(.(.{ (.(.(.(.(.(.(.{ (.(.(.(.",
"N.N.N.N.N.N.N.N.N.N.N.N.N.N.N.N.N.N.N.N.N.N.N.N.N.N.N.N.N.N.N.N.N.N.N.N.N.N.N.N.N.N.N.N.N.N.N.N.N.N.N.N.N.N.N.N.N.N.N.N.N.N.N.N.",
"(.(.(.(.(.(.(.{ (.(.(.(.(.(.(.{ (.(.(.(.(.(.(.{ (.(.(.(.(.(.(.{ (.(.(.(.(.(.(.{ (.(.(.(.(.(.(.{ (.(.(.(.(.(.(.{ (.(.(.(.(.(.(.{ ",
"(.(.(.(.(.(.(.{ (.(.(.(.(.(.(.{ (.(.(.(.(.(.(.{ (.(.(.(.(.(.(.{ (.(.(.(.(.(.(.{ (.(.(.(.(.(.(.{ (.(.(.(.(.(.(.{ (.(.(.(.(.(.(.{ ",
"(.(.(.(.(.(.(.{ (.(.(.(.(.(.(.{ (.(.(.(.(.(.(.{ (.(.(.(.(.(.(.{ (.(.(.(.(.(.(.{ (.(.(.(.(.(.(.{ (.(.(.(.(.(.(.{ (.(.(.(.(.(.(.{ ",
"N.N.N.N.N.N.N.N.N.N.N.N.N.N.N.N.N.N.N.N.N.N.N.N.N.N.N.N.N.N.N.N.N.N.N.N.N.N.N.N.N.N.N.N.) *  .N.N.N.N.N.N.N.N.N.N.N.N.N.N.N.N.N.",
"(.(.(.{ (.(.(.(.(.(.(.{ (.(.(.(.(.(.(.{ (.(.(.(.(.(.(.{ (.(.(.(.(.(.(.{ (.(.(.(.(.(.(.{ c.* p.H.J.^.(.{ (.(.(.(.(.(.(.{ (.(.(.(.",
"(.(.(.{ (.(.(.(.(.(.(.{ (.(.(.(.(.(.(.{ (.(.(.(.(.(.(.{ (.(.(.(.(.(.(.{ (.(.(.(.(.(.(.{ :.& v 0.0.W.(.{ (.(.(.(.(.(.(.{ (.(.(.(.",
"(.(.(.{ (.(.(.(.(.(.(.{ (.(.(.(.(.(.(.{ (.(.(.(.(.(.(.{ (.(.(.(.(.(.(.{ (.(.(.(.(.F.) n G & v 3.0.E.(.F (.(.(.(.(.(.(.{ (.(.(.(.",
"N.N.N.N.N.N.N.N.N.N.N.N.N.N.N.N.N.N.N.N.N.N.N.N.N.N.N.N.N.N.N.N.N.N.N.N.N.N.N.N.N.) % % % & h z c [ |  . .h.N.N.N.N.N.N.N.N.N.N.",
"(.(.(.(.(.(.(.{ (.(.(.(.(.(.(.{ (.(.(.(.(.(.(.{ (.(.(.(.(.(.(.{ (.(.(.(.(.(.(.{ (.v.% % % % % % & & % - & ] (.{ (.(.(.(.(.(.(.{ ",
"(.(.(.(.(.(.(.{ (.(.(.(.(.(.(.{ (.(.(.(.(.(.(.{ (.(.(.(.(.(.(.{ (.(.(.(.(.(.(.{ (.c.% % % % % % + % % $ % ] (.F (.(.(.(.(.(.(.{ ",
"(.(.(.(.(.(.(.{ (.(.(.(.(.(.(.{ (.(.(.(.(.(.(.{ (.(.(.(.(.(.(.{ (.(.(.(.(.(.(.{ (.v.% % % % % % + % % & q ^ b.C b.b.b.b.b.b.b.C ",
"N.N.N.N.N.N.N.N.N.N.N.N.N.N.N.N.N.N.N.N.N.N.N.N.N.N.N.N.N.N.N.N.N.N.N.N.N.N.N.N.N.) % % % % % % % $ + < 1.d % % & % % & % % % % ",
"(.(.(.{ (.(.(.(.(.(.(.{ (.(.(.(.(.(.(.{ (.(.(.(.(.(.(.{ (.(.(.(.(.(.(.{ (.(.(.~.-.a % % % % % % % % % & q < % % % : h z z z e % ",
"(.(.(.{ (.(.(.(.(.(.(.{ (.(.(.(.(.(.(.{ (.(.(.(.(.(.(.{ (.(.(.(.(.(.(.{ (.(.(.~.J % % + % % % % % % < e e e e e e u 2.7.7.3.k r ",
"(.(.(.{ (.(.(.(.(.(.(.{ (.(.(.(.(.(.(.{ (.(.(.(.(.(.(.F (.(.(.(.(.(.(.F (.(.(.~.H % % % % % % % % % u 3.3.3.3.3.3.3.9.6.6.6.6.6.",
"N.N.N.N.N.N.N.N.N.N.N.N.N.N.N.N.N.N.N.N.N.N.N.N.N.N.N.N.N.N.N.N.N.N.N.N.N.N.N.n.M % % % % % % % % % u 3.3.3.3.3.3.3.9.6.6.6.6.6.",
"(.(.(.(.(.(.(.F (.(.(.(.(.(.(.{ (.(.(.(.(.(.(.{ (.(.(.(.(.(.(.f.(.(.(.(.(.!.!.+.H % % % % % % % % % u 3.7.7.8.7.7.7.9.6.6.6.i./ ",
"(.(.(.~.^.(.(.{ (.(.(.(.(.(.(.{ (.(.(.(.(.(.(.{ (.(.(.(.(.(.(.F (.(.(.(.~.Y.D.D.G % % % % % % % % % u 3.9.6.6.6.6.6.6.6.6.9.A.{ ",
"(.(.I.R V _ R.{ (.(.(.(.(.(.(.F (.(.(.(.(.(.(.{ (.(.(.(.(.(.(.F (.(.(.(.~.O.0 0 E T % % % % % % & h 2.9.9.6.6.6.6.w.S.H.H.H.W.{ ",
"N.N.f.#   # ( f.N.N.N.N.N.N.N.M.N.N.N.N.N.N.N.N.N.N.N.M.M.M.N.N.N.N.N.l.( -   . J O.J J 0 % % % : v 7.6.q.&.&.&.y.>.m.N.N.N.N.N.",
"(.(.K.#       ] R.(.(.F (.(.(.(.(.(.(.{ (.(.(.(.(.(.(.{ (.(.(.(.(.~.!.N         + J D.D.@.& % % * c 9.5.U.(.(.(.(.(.(.{ (.(.(.(.",
"(.(.K.#       - _ T.(.{ (.(.(.(.(.(.(.{ (.(.(.(.(.(.(.{ (.(.(.(.F.D D $ + o + + % > G G T $.8 % * ! u.' ^.(.(.(.(.(.(.{ (.(.(.(.",
"(.(.K.X         9 I.(.{ (.(.(.(.(.(.(.{ (.(.(.^.(.(.(.{ (.(.(.(.c.    . % % % % % % % % J D.a % : c d.{ (.(.(.(.(.(.(.{ (.(.(.(.",
"N.N.f.#         4 f.M.M.n.n.n.n.n.n.M.N.n.n.m.l.n.n.n.n.n.n.n.n.(     X % % % % % % % % J C.G - > ! &.N.N.N.N.N.N.N.N.N.N.N.N.N.",
"(.(.K.9 o o     o 9 M M M 0 M 3 H H H H H H H 6 J H H H G M M = 5 + + + % % % % % % % % > G @.<.<.G.W.(.(.(.(.{ (.(.(.(.(.(.(.{ ",
"(.(.T.=._ Y o     X X X X X o % % % % % % & % % % % % % o X X X o % % % % % % % + + % % % * *.s.d.R.(.(.(.(.(.{ (.(.(.(.(.(.(.{ ",
"(.(.(.(.(.K.; . X % % % % % % % % % % % % % % % % % % % % % % % % % % % % % % + . O & & * : ! 5.t.P.(.(.(.(.(.{ (.(.(.(.(.(.(.{ ",
"N.N.N.N.N.j.W y # % % % % % % % % % % % % % % % % % % % % % % % % % % % % % % + X : c c c ! ,.x.x.m.N.N.N.N.N.N.N.N.N.N.N.N.N.N.",
"(.(.(.{ (.U.r.f % % % % % % % % % % % % % % % % % % % % % % % % % % % % % % % + . w 9.6.6.w.L.(.(.(.(.F (.(.(.(.(.(.(.{ (.(.(.(.",
"(.(.(.{ (.U.r.f % % % % % % % % % % % % % % % % % % % % % % % % % % % % % % % + . w 6.6.6.r.P.(.(.(.(.{ (.(.(.(.(.(.(.{ (.(.(.(.",
"(.(.(.{ (.U.r.f % % % % % % % % % % % % % % % % % % % % % % % % % % % % % . X .   w 6.6.u.U.^.(.(.(.(.{ (.(.(.(.(.(.(.{ (.(.(.(.",
"N.N.m.,.>.&.e.f % % % + % % % % % % % % % % % % % % % % % % % % % % % % % .     @ h 6.6.y.N.N.N.N.N.N.N.N.N.N.N.N.N.N.N.N.N.N.N.",
"(.(.Q.r.6.6.6.f % % % % % % % % % % % % % % % % % + % % % % % % % % % % % X   . z 7.6.6.Z.(.(.{ (.(.(.(.(.(.(.{ (.(.(.(.(.(.(.{ ",
"(.(.U.r.6.9.6.f % % % % % % % % % % % % % % % % % % % % % % % % % % % % % X   . z 8.6.6.d.(.(.{ (.(.(.(.(.(.(.{ (.(.(.(.(.(.(.{ ",
"(.P.A.w.6.4.j w % % % % % % % % % % % + O O + + % % % % % % % % % % % % % .     k r.Z.Z.H.(.(.{ (.(.(.(.(.(.(.{ (.(.(.(.(.(.(.{ ",
"m.*.4.4.4.k : + % % % % % % % % % % + .     O + * : : * & % % % % % % + % .   . k y.N.N.N.N.N.N.N.N.N.N.N.N.N.N.N.N.N.N.N.N.N.N.",
"i.Q , , , < X o % % % % % % % $ % + . X % + s c ! ! c ~ y % % % % % % % % .   . k a.^.F (.(.(.(.(.(.(.{ (.(.(.(.(.(.(.{ (.(.(.(.",
"6.g % % % + X o % $ % % % % % % % +   O % % j 6.6.6.6.6.t % % % % % % % % .   . k s.(.{ (.(.(.(.(.(.(.{ (.(.(.(.(.(.(.{ (.(.(.(.",
"6.g % + % % X & 9 : & % % % % $ + O   % 9 9 W r.w.r.r.5.p % % % % % % % % X   . h p.(.{ (.(.(.(.(.(.(.{ (.(.(.(.(.(.(.{ (.(.(.(.",
"6.g $ . . X o D ] ~ p % % % + . .     L +.+.j.z.z.z.z.z.M % % o . + % % % % + % : R N.N.N.N.N.N.N.N.N.N.N.N.N.N.N.N.N.N.N.N.N.N.",
"6.f o X X - _ F Q.S.K % % % +     . o :.(.(.(.{ (.(.(.(.R % o . 5 #.#.O.O.8 % % % _ ^.(.(.(.(.{ (.(.(.(.(.(.(.{ (.(.(.(.(.(.(.{ ",
"~ e X 7 9 P T.{ (.(.] % % % o .   o 9 b.(.(.(.{ (.(.~.I.H o   X R ^.(.(.~.P % % % Y I.I.R.(.(.{ (.(.(.(.(.(.(.{ (.(.(.(.(.(.(.{ ",
", + ; b.K.I.^.{ (.(.] % % % o     7 F.!.(.(.(.{ (.(.F.M % X + n T.(.(.(.(.Y % % % ; 0 0 =.(.(.F (.(.(.(.(.(.(.{ (.(.(.(.(.(.(.{ ",
"% O = g.N.N.N.N.N.N.X.U U 9 +     # A ..N.N.N.N.N.N.| & X = I g.N.N.N.N.N.) U I 2 % % % H N.N.N.N.N.N.N.N.N.N.N.N.N.N.N.N.N.N.N.",
"% O 2 F (.(.(.(.(.(.(.f.(.` #         n ~.(.(.(.(.(.B.& . H (.(.(.(.(.{ (.(.(.~.J % % % _ (.(.(.(.(.(.{ (.(.(.(.(.(.(.{ (.(.(.(.",
"% O ; F (.(.(.(.(.(.(.F (.| #         n (.(.(.(.(.(.B.% . G (.(.(.(.(.{ (.(.(.~.J % % % _ (.(.(.(.(.(.{ (.(.(.(.(.(.(.{ (.(.(.(.",
"% o 7 F (.(.(.(.(.(.(.F (._ o .       n (.(.(.(.(.(.B.% . D (.(.(.(.(.{ (.(.(.~.L % % % M -.I.(.(.(.(.{ (.(.(.(.(.(.(.{ (.(.(.(.",
"% o = ) g.h.N.N.N.N.N.N.N.( 2 X   . . D f.f.h.N.N.N.| = . 3 ..n.N.N.N.N.N.N.N.M.L ; % % % - ) g.h.N.N.N.N.N.N.N.N.N.N.N.N.N.N.N.",
"% % % * ; D I.F (.(.(.(.(.R.v.% $ + % = ; ; b.F (.(.B.& # % ; C (.(.(.(.(.(.(.{ T.;.% % % % 7 ; S K.(.(.(.(.(.{ (.(.(.(.(.(.(.{ ",
"-.H + o X & R 3 j.~.(.(.(.(.T.B =.R & X   X V N (.(.I.-.0 % X 4 c.(.(.(.(.(.(.{ (.K.=.;.P % % % - _ B.(.(.(.(.{ (.(.(.(.(.(.(.{ ",
"(.=.% % % %     9 I.(.(.(.(.(.F (.F.; X       = ~.(.(.(.R % % . H (.(.(.(.(.(.{ (.(.(.(.:.& % % $ & [ (.(.(.(.{ (.(.(.(.(.(.(.{ ",
"N.U % % % o .   ; h.N.N.N.N.N.N.N. .- X       3 n.N.N.N.V % % . m N.N.N.N.N.N.N.N.N.N.N.) % % % $ $ L N.N.N.N.N.N.N.N.N.N.N.N.N.",
"(.+.- 4 = # X X 7 I.(.f.(.(.(.(.(.F.5 X       M ~.(.(.{ R % % . H (.(.{ (.(.(.(.(.(.(.{ c.% % % % % ` { (.(.(.(.(.(.(.{ (.(.(.(.",
"(.(.(.F (.(.(.(.(.(.(.F (.(.(.(.(.(.(.{ (.(.(.(.(.(.(.{ (.(.(.(.(.(.(.{ (.(.(.(.(.(.(.{ (.(.(.(.(.(.(.{ (.(.(.(.(.(.(.{ (.(.(.(.",
"(.(.(.F (.(.(.(.(.(.(.F (.(.(.(.(.(.(.{ (.(.(.(.(.(.(.{ (.(.(.(.(.(.(.{ (.(.(.(.(.(.(.{ (.(.(.(.(.(.(.{ (.(.(.(.(.(.(.{ (.(.(.(.",
"N.N.N.N.N.N.N.N.N.N.N.N.N.N.N.N.N.N.N.N.N.N.N.N.N.N.N.N.N.N.N.N.N.N.N.N.N.N.N.N.N.N.N.N.N.N.N.N.N.N.N.N.N.N.N.N.N.N.N.N.N.N.N.N.",
"(.(.(.(.(.(.(.{ (.(.(.(.(.(.(.F (.(.(.(.(.(.(.{ (.(.(.(.(.(.(.{ (.(.(.(.(.(.(.{ (.(.(.(.(.(.(.{ (.(.(.(.(.(.(.{ (.(.(.(.(.(.(.{ ",
"(.(.(.(.(.(.(.{ (.(.(.(.(.(.(.{ (.(.(.(.(.(.(.{ (.(.(.(.(.(.(.{ (.(.(.(.(.(.(.{ (.(.(.(.(.(.(.{ (.(.(.(.(.(.(.{ (.(.(.(.(.(.(.{ ",
"(.(.(.(.(.(.(.{ (.(.(.(.(.(.(.{ (.(.(.(.(.(.(.F (.(.(.(.(.(.(.{ (.(.(.(.(.(.(.{ (.(.(.(.(.(.(.{ (.(.(.(.(.(.(.{ (.(.(.(.(.(.(.{ ",
"N.N.N.N.N.N.N.N.N.N.N.N.N.N.N.N.N.N.N.N.N.N.N.N.N.N.N.N.N.N.N.N.N.N.N.N.N.N.N.N.N.N.N.N.N.N.N.N.N.N.N.N.N.N.N.N.N.N.N.N.N.N.N.N."
};
